<?xml version="1.0" encoding="UTF-8" standalone="no"?>
<!-- Created with Inkscape (http://www.inkscape.org/) -->

<svg
   width="24.183964mm"
   height="4.492321mm"
   viewBox="0 0 24.183964 4.492321"
   version="1.1"
   id="svg1"
   xml:space="preserve"
   sodipodi:docname="logo.svg"
   inkscape:version="1.3.2 (091e20e, 2023-11-25, custom)"
   xmlns:inkscape="http://www.inkscape.org/namespaces/inkscape"
   xmlns:sodipodi="http://sodipodi.sourceforge.net/DTD/sodipodi-0.dtd"
   xmlns:xlink="http://www.w3.org/1999/xlink"
   xmlns="http://www.w3.org/2000/svg"
   xmlns:svg="http://www.w3.org/2000/svg"><sodipodi:namedview
     id="namedview1"
     pagecolor="#ffffff"
     bordercolor="#000000"
     borderopacity="0.25"
     inkscape:showpageshadow="2"
     inkscape:pageopacity="0.0"
     inkscape:pagecheckerboard="0"
     inkscape:deskcolor="#d1d1d1"
     inkscape:document-units="mm"
     showgrid="false"
     inkscape:zoom="11.313709"
     inkscape:cx="241.43277"
     inkscape:cy="367.29778"
     inkscape:window-width="2560"
     inkscape:window-height="1017"
     inkscape:window-x="1072"
     inkscape:window-y="282"
     inkscape:window-maximized="1"
     inkscape:current-layer="g23" /><defs
     id="defs1"><linearGradient
       id="linearGradient26"
       inkscape:collect="always"><stop
         style="stop-color:#d23a0b;stop-opacity:1;"
         offset="0"
         id="stop24" /><stop
         style="stop-color:#e28e05;stop-opacity:1;"
         offset="0.2500796"
         id="stop25" /><stop
         style="stop-color:#ffe157;stop-opacity:1;"
         offset="1"
         id="stop26" /></linearGradient><linearGradient
       id="linearGradient19"
       inkscape:collect="always"><stop
         style="stop-color:#dd3b00;stop-opacity:1;"
         offset="0"
         id="stop18" /><stop
         style="stop-color:#e7c40b;stop-opacity:1;"
         offset="1"
         id="stop19" /></linearGradient><linearGradient
       inkscape:collect="always"
       xlink:href="#linearGradient26"
       id="linearGradient34"
       gradientUnits="userSpaceOnUse"
       gradientTransform="matrix(1.4553421,0,0,1.4597074,-1.6966748,-62.120256)"
       x1="59.365887"
       y1="103.45208"
       x2="59.365887"
       y2="100.64088" /><linearGradient
       inkscape:collect="always"
       xlink:href="#linearGradient19"
       id="linearGradient35"
       gradientUnits="userSpaceOnUse"
       gradientTransform="matrix(1.4553421,0,0,1.4597074,-1.0874697,-62.10192)"
       x1="59.365887"
       y1="103.45208"
       x2="59.365887"
       y2="100.64088" /><linearGradient
       inkscape:collect="always"
       xlink:href="#linearGradient26"
       id="linearGradient36"
       gradientUnits="userSpaceOnUse"
       x1="63.091305"
       y1="94.99427"
       x2="63.084007"
       y2="94.557297" /><filter
       inkscape:collect="always"
       style="color-interpolation-filters:sRGB"
       id="filter71"
       x="-0.021209111"
       y="-0.043156433"
       width="1.0413247"
       height="1.0859257"><feGaussianBlur
         inkscape:collect="always"
         stdDeviation="0.05187273"
         id="feGaussianBlur71" /></filter><filter
       inkscape:collect="always"
       style="color-interpolation-filters:sRGB"
       id="filter75"
       x="-0.099090087"
       y="-0.69820301"
       width="1.1981802"
       height="2.396406"><feGaussianBlur
         inkscape:collect="always"
         stdDeviation="0.04269631"
         id="feGaussianBlur75" /></filter><filter
       inkscape:collect="always"
       style="color-interpolation-filters:sRGB"
       id="filter76"
       x="-0.07181758"
       y="-0.15738531"
       width="1.1436352"
       height="1.3147706"><feGaussianBlur
         inkscape:collect="always"
         stdDeviation="0.023456969"
         id="feGaussianBlur76" /></filter><filter
       inkscape:collect="always"
       style="color-interpolation-filters:sRGB"
       id="filter77"
       x="-0.031376455"
       y="-0.047252427"
       width="1.0627529"
       height="1.0945049"><feGaussianBlur
         inkscape:collect="always"
         stdDeviation="0.04269631"
         id="feGaussianBlur77" /></filter></defs><g
     inkscape:label="Layer 1"
     inkscape:groupmode="layer"
     id="layer1"
     transform="translate(-79.210649,-84.613729)"><g
       id="g77"><path
         style="font-size:1.52199px;line-height:0;font-family:'Pirata One';-inkscape-font-specification:'Pirata One';opacity:0.601562;fill:#ffffff;fill-opacity:1;stroke-width:0.511997;filter:url(#filter77)"
         d="m 88.385003,88.073039 v -1.393064 l 0.0812,-0.07897 h -0.165002 q -0.159753,0 -0.180719,0.08675 h -0.05761 l -0.14929,-0.215541 q 0.03142,-0.04994 0.08119,-0.08935 0.04976,-0.03942 0.0969,-0.03942 h 0.69142 q 0.159756,0 0.18072,-0.08675 h 0.05762 l 0.149281,0.215511 q -0.03142,0.04995 -0.08118,0.0895 -0.04976,0.03942 -0.09691,0.03942 h -0.293327 v 1.335221 q 0,0.09731 0.02097,0.139288 0.02095,0.04199 0.08641,0.04199 v 0.08157 l -0.53689,0.226031 -0.04189,-0.08417 q 0.05762,0 0.109993,-0.06842 0.04716,-0.06568 0.04716,-0.199776 z m 1.317349,-0.80693 v -0.462597 q 0,-0.0973 -0.02095,-0.139288 -0.02097,-0.04199 -0.08643,-0.04199 v -0.08157 l 0.536894,-0.226054 0.04189,0.08417 q -0.05761,0 -0.109994,0.06842 -0.04715,0.06583 -0.04715,0.199757 v 0.599269 h 0.130943 v 0.06308 l -0.130943,0.06568 v 0.55722 q 0,0.160207 0.107373,0.181369 v 0.05789 l -0.26452,0.149837 q -0.05761,-0.02366 -0.107372,-0.07621 -0.04976,-0.0553 -0.04976,-0.102644 v -0.7675 h -0.235698 v 0.541456 q 0,0.0973 0.02096,0.139288 0.02096,0.04199 0.08642,0.04199 v 0.08157 l -0.536892,0.226032 -0.04189,-0.08417 q 0.05761,0 0.109994,-0.06842 0.04715,-0.06568 0.04715,-0.199758 v -1.366777 q 0,-0.160206 -0.107374,-0.181368 v -0.05789 l 0.264518,-0.149676 q 0.05762,0.02366 0.107373,0.07898 0.04976,0.05253 0.04976,0.09974 v 0.841098 l 0.130943,-0.07102 z m 0.937598,-0.693888 q -0.02619,0 -0.04714,0.02627 v 0.693887 h 0.369275 v 0.06308 l -0.130942,0.06568 h -0.238331 v 0.262832 q 0,0.291761 0.05761,0.341705 0.08642,0.07361 0.188569,0.08417 0.102143,0.0097 0.219992,0.0097 v 0.07622 q -0.01317,0 -0.193814,0.0736 -0.1807,0.07102 -0.219994,0.07102 -0.08118,0 -0.225233,-0.126165 -0.141433,-0.126165 -0.141433,-0.273337 v -1.382541 q 0,-0.01842 0.298567,-0.128912 0.30118,-0.11286 0.345703,-0.11286 0.01573,0 0.03666,0.07622 0.02097,0.07622 0.04716,0.183982 0.02881,0.107837 0.05761,0.160206 0.03143,0.04995 0.115234,0.04995 v 0.05252 q -0.05761,0.02627 -0.196417,0.09471 -0.136184,0.06568 -0.146659,0.06568 -0.03928,0 -0.09954,-0.212901 -0.06024,-0.215529 -0.09691,-0.215529 z"
         id="path73"
         aria-label="THE" /><path
         style="font-size:3.52777px;line-height:0;font-family:'Pirata One';-inkscape-font-specification:'Pirata One';opacity:0.346354;mix-blend-mode:normal;fill:#ffffff;fill-opacity:1;stroke:#ffffff;stroke-width:0.0211865;stroke-dasharray:none;stroke-opacity:1;filter:url(#filter71)"
         d="m 54.603166,69.96589 c -0.04934,0 -0.102777,0.02057 -0.160334,0.06183 v 1.340134 c 0.07125,0 0.15074,-0.02197 0.238446,-0.06592 0.0877,-0.04676 0.131563,-0.09491 0.131563,-0.144322 v -0.886545 c 0,-0.203418 -0.06988,-0.305132 -0.209668,-0.305132 z m -0.63922,2.244072 -0.01441,-2.029656 c -0.0012,-0.167685 -0.05015,-0.31447 -0.162533,-0.336468 l 0.0012,-0.0581 0.407999,-0.215713 c 0.05482,0.02197 0.109631,0.06183 0.164445,0.119579 0.05482,0.05775 0.08223,0.109989 0.08223,0.156685 0.301483,-0.184177 0.474152,-0.276271 0.518004,-0.276271 0.04385,0 0.112367,0.05634 0.205556,0.169063 0.09594,0.112675 0.143889,0.214416 0.143889,0.305131 v 1.158704 c 0,0.02197 -0.14937,0.09211 -0.448114,0.21029 0.126076,0.426096 0.274077,0.713368 0.444004,0.861813 0.07674,0.06323 0.154856,0.09479 0.234335,0.09479 v 0.123696 c -0.25489,0.162191 -0.416594,0.243286 -0.485113,0.243286 -0.09045,0 -0.205559,-0.170442 -0.345337,-0.511318 -0.137035,-0.340875 -0.211039,-0.566289 -0.222002,-0.676244 l -0.04523,0.01241 0.01266,0.640594 c 0.0049,0.245404 0.171407,0.435519 0.219033,0.435519 l -0.04878,0.111624 -0.883733,-0.0012 -0.05856,-0.103566 c 0.06029,0 0.15158,-0.05026 0.206394,-0.121696 0.04934,-0.06872 0.074,-0.17319 0.074,-0.313383 z m 1.761558,-0.0093 v -2.250898 c 0,-0.01928 0.156223,-0.08662 0.468669,-0.202061 0.312448,-0.118207 0.491969,-0.177305 0.53856,-0.177305 0.04659,0 0.116485,0.05635 0.209668,0.169065 0.09594,0.112675 0.14389,0.214415 0.14389,0.30513 v 1.080355 h 0.201447 v 0.099 l -0.201447,0.103099 v 0.799957 c 0,0.151192 0.06577,0.24054 0.197335,0.26802 v 0.09071 l -0.448114,0.264104 c -0.0603,-0.02479 -0.116471,-0.07726 -0.168556,-0.132148 -0.05209,-0.05775 -0.07811,-0.11139 -0.07811,-0.160813 v -1.129832 h -0.370004 l -0.0025,0.859779 c -6.18e-4,0.217022 0.161839,0.441502 0.214323,0.441502 l -0.06746,0.121521 -0.86085,0.0023 -0.06577,-0.128206 c 0.0603,0 0.160007,-0.03821 0.214823,-0.109639 0.04934,-0.06872 0.05926,-0.173972 0.074,-0.313383 z m 0.653671,-2.246784 c -0.05482,0 -0.108263,0.02057 -0.160334,0.06183 v 1.216421 l 0.243761,-0.09269 0.126237,-0.01445 v -0.865927 c 0,-0.20343 -0.06989,-0.305143 -0.209668,-0.305143 z m 1.784235,2.379251 c 0.167187,0 0.261742,-0.04535 0.283668,-0.136074 h 0.09045 l 0.234337,0.338128 c -0.03289,0.05224 -0.07537,0.09888 -0.127445,0.140191 -0.05209,0.04126 -0.102791,0.07446 -0.152112,0.07446 l -1.127705,0.0035 c -0.05482,-0.167698 -0.03164,-0.314518 -0.03164,-0.40798 l 0.986674,-2.338015 h -0.378226 c -0.167186,0 -0.261741,0.04535 -0.283668,0.136074 h -0.130194 l -0.194588,-0.338128 c -0.03079,-0.05354 0.07536,-0.09888 0.127444,-0.14019 0.05209,-0.04127 0.102791,-0.04816 0.152114,-0.04816 h 0.550892 c 0.167187,0 0.261742,-0.05061 0.283669,-0.141285 h 0.09045 c 0.03838,0.05224 0.08633,0.139972 0.143889,0.280188 0.0603,0.137446 0.09045,0.219921 0.09045,0.247413 l -0.933229,2.329762 z m 1.422457,-2.371 c -0.0274,0 -0.05209,0.01372 -0.074,0.04127 v 1.088596 h 0.57967 v 0.099 l -0.205556,0.1031 h -0.374114 v 0.412351 c 0,0.305131 0.03014,0.483814 0.09045,0.536051 0.09045,0.07703 0.189113,0.120966 0.296002,0.131943 0.106895,0.01051 0.222001,0.01648 0.345336,0.01648 v 0.119579 c -0.01368,0 -0.115118,0.03845 -0.304224,0.115478 -0.189113,0.07423 -0.304224,0.123856 -0.345336,0.123856 -0.08496,0 -0.202817,-0.07843 -0.353558,-0.210407 -0.148001,-0.131957 -0.222001,-0.274892 -0.222001,-0.428831 v -2.16895 c 0,-0.01928 0.156222,-0.08662 0.46867,-0.202048 0.315187,-0.118207 0.496078,-0.177317 0.542669,-0.177317 0.01644,0 0.03564,0.03985 0.05756,0.11958 0.02192,0.07971 0.04659,0.175937 0.074,0.288638 0.03016,0.112674 0.06029,0.196555 0.09045,0.251538 0.03289,0.05224 0.09319,0.07831 0.180891,0.07831 v 0.0824 c -0.0603,0.02747 -0.163074,0.07703 -0.308336,0.148446 -0.142522,0.06872 -0.219261,0.103099 -0.230224,0.103099 -0.04111,0 -0.0932,-0.11139 -0.156222,-0.334003 -0.06303,-0.225459 -0.113738,-0.338173 -0.152117,-0.338173 z"
         id="path52"
         aria-label="RAZE"
         sodipodi:nodetypes="ccccsscccscccscscssccccscccscccccccsscscsccccsccccsccscccccssscccssscccsscccscccssscccccscccccccscscccscsscsscccccscccc"
         transform="matrix(1.2488291,0,0,1.2488291,12.431639,-1.9254972)" /><g
         id="g74"
         style="opacity:0.601562;fill:#ffffff;fill-opacity:1;stroke-width:0.549393;filter:url(#filter76)"
         transform="matrix(1.8174736,0,0,1.822925,-24.909706,-87.501762)"><path
           id="path74"
           style="opacity:1;fill:#ffffff;fill-opacity:1;stroke-width:0.0486956"
           d="m 62.64109,94.659536 0.264806,0.162423 0.137594,-0.234952 0.158096,0.235338 0.223389,-0.16864 -0.07515,0.291002 c -0.19482,-0.03545 -0.392259,-0.04345 -0.595153,0 z"
           sodipodi:nodetypes="cccccccc" /></g><path
         style="font-size:3.52777px;line-height:0;font-family:'Pirata One';-inkscape-font-specification:'Pirata One';opacity:0.346354;mix-blend-mode:normal;fill:#ffffff;fill-opacity:1;stroke:#ffffff;stroke-width:0.0211865;stroke-dasharray:none;stroke-opacity:1;filter:url(#filter71)"
         d="m 54.527936,69.936586 c -0.04934,0 -0.102776,0.02057 -0.160335,0.06183 v 1.340133 c 0.07127,0 0.15074,-0.02197 0.238446,-0.06592 0.08771,-0.04675 0.131563,-0.09491 0.131563,-0.144321 v -0.886546 c 0,-0.203418 -0.06988,-0.305131 -0.209667,-0.305131 z m -0.63922,2.244073 -0.01441,-2.029656 c -0.0012,-0.167686 -0.05618,-0.262527 -0.168557,-0.284525 v -0.09071 l 0.415225,-0.235035 c 0.05482,0.02197 0.109646,0.06183 0.164445,0.119579 0.05482,0.05775 0.08223,0.109989 0.08223,0.156685 0.301483,-0.184177 0.474152,-0.276271 0.518004,-0.276271 0.04385,0 0.112367,0.05634 0.205556,0.169065 0.09594,0.112674 0.143889,0.214415 0.143889,0.305129 v 1.158704 c 0,0.02197 -0.14937,0.09211 -0.448114,0.21029 0.126076,0.426096 0.274077,0.713368 0.444005,0.861813 0.07674,0.06323 0.154855,0.09479 0.234334,0.09479 v 0.123696 c -0.25489,0.162191 -0.416594,0.243286 -0.485113,0.243286 -0.09045,0 -0.205558,-0.170442 -0.345337,-0.511318 -0.137035,-0.340875 -0.211039,-0.566289 -0.222002,-0.676244 l -0.04523,0.01241 0.01266,0.640594 c 0.0049,0.245403 0.182247,0.433098 0.229875,0.433098 l -0.05963,0.114076 h -0.842783 l -0.06578,-0.119317 c 0.0603,0 0.117854,-0.03576 0.172669,-0.107186 0.04934,-0.06872 0.074,-0.17319 0.074,-0.313383 z m 1.761558,-0.0093 v -2.250897 c 0,-0.01928 0.156222,-0.08662 0.46867,-0.202062 0.312447,-0.118207 0.491967,-0.177305 0.538559,-0.177305 0.04659,0 0.116486,0.05635 0.209669,0.169065 0.09594,0.112675 0.143889,0.214415 0.143889,0.305132 v 1.080354 h 0.201446 v 0.099 l -0.201446,0.103099 v 0.799956 c 0,0.151192 0.06577,0.24054 0.197334,0.26802 v 0.09071 l -0.448114,0.264105 c -0.06029,-0.02479 -0.116471,-0.07726 -0.168555,-0.132147 -0.05209,-0.05775 -0.07811,-0.11139 -0.07811,-0.160812 v -1.129882 h -0.370002 l -0.0025,0.859778 c -6.17e-4,0.217023 0.16184,0.441503 0.214323,0.441503 l -0.06746,0.12152 h -0.818695 l -0.06577,-0.128206 c 0.06029,0 0.117854,-0.03576 0.172668,-0.107186 0.04934,-0.06872 0.05926,-0.173974 0.074,-0.313385 z m 0.653671,-2.246784 c -0.05482,0 -0.108263,0.02057 -0.160335,0.06183 v 1.216423 l 0.242558,-0.107187 h 0.127444 v -0.865927 c 0,-0.203428 -0.06988,-0.305143 -0.209668,-0.305143 z m 1.784234,2.379251 c 0.167187,0 0.261743,-0.04535 0.283669,-0.136073 h 0.09045 l 0.234335,0.338128 c -0.03289,0.05224 -0.07536,0.09888 -0.127445,0.14019 -0.05209,0.04127 -0.102791,0.07446 -0.152111,0.07446 h -1.077119 c -0.05482,-0.167697 -0.08223,-0.310895 -0.08223,-0.404357 l 0.986674,-2.338013 h -0.378223 c -0.1708,-0.03378 -0.300283,0.0478 -0.322209,0.138497 l -0.05191,-0.0023 -0.234335,-0.338128 c 0.03289,-0.05224 0.07536,-0.09888 0.127444,-0.14019 0.05209,-0.04127 0.102791,-0.06183 0.152112,-0.06183 h 0.550894 c 0.167187,0 0.261742,-0.04535 0.283668,-0.136074 h 0.09045 c 0.03838,0.05224 0.08633,0.148422 0.14389,0.288638 0.06029,0.137446 0.09045,0.219923 0.09045,0.247413 l -0.93323,2.329762 z m 1.422458,-2.370998 c -0.0274,0 -0.05209,0.01372 -0.074,0.04127 v 1.088596 h 0.579672 v 0.099 l -0.205557,0.103099 h -0.374115 v 0.412352 c 0,0.305131 0.03014,0.483815 0.09045,0.536051 0.09045,0.07703 0.189113,0.120966 0.296003,0.131943 0.106895,0.01051 0.222001,0.01648 0.345336,0.01648 v 0.119579 c -0.01368,0 -0.115118,0.03846 -0.304224,0.115478 -0.189113,0.07423 -0.304226,0.12387 -0.345336,0.12387 -0.08496,0 -0.202817,-0.07843 -0.353558,-0.210406 -0.148001,-0.131958 -0.222003,-0.274894 -0.222003,-0.428833 v -2.168948 c 0,-0.01928 0.156224,-0.08662 0.468672,-0.20205 0.315186,-0.118207 0.496076,-0.177317 0.542669,-0.177317 0.01645,0 0.03564,0.03987 0.05756,0.119579 0.02192,0.07972 0.04659,0.175938 0.074,0.288639 0.03014,0.112674 0.0603,0.196555 0.09045,0.251538 0.03289,0.05224 0.09319,0.07831 0.180891,0.07831 v 0.0824 c -0.0603,0.02747 -0.163074,0.07703 -0.308336,0.148445 -0.142522,0.06872 -0.219262,0.103099 -0.230224,0.103099 -0.04111,0 -0.0932,-0.111391 -0.156224,-0.334002 -0.06303,-0.225415 -0.113735,-0.338128 -0.152112,-0.338128 z"
         id="path53"
         aria-label="RAZE"
         sodipodi:nodetypes="ccccsscccscccscscssccccscccscccccccsscscsccccsccccsccscccccssscccssscccsscccscccssscccccscccccccscscccscsscsscccccscccc"
         transform="matrix(1.2488291,0,0,1.2488291,12.431639,-1.9254972)" /><path
         id="path75"
         style="opacity:0.601562;fill:#ffffff;fill-opacity:1;stroke-width:0.0890001;stroke-dasharray:none;filter:url(#filter75)"
         d="m 89.171711,85.670262 c 0.357715,-0.08212 0.676407,-0.0743 1.034121,0 l -0.01952,0.08807 c -0.366505,-0.09698 -0.638293,-0.07458 -0.989244,0 z"
         sodipodi:nodetypes="ccccc" /><path
         style="font-size:3.52777px;line-height:0;font-family:'Pirata One';-inkscape-font-specification:'Pirata One';opacity:0.346354;mix-blend-mode:normal;fill:#ffffff;fill-opacity:1;stroke:#ffffff;stroke-width:0.0211865;stroke-dasharray:none;stroke-opacity:1;filter:url(#filter71)"
         d="m 54.50168,69.936586 c -0.04934,0 -0.102776,0.02057 -0.160335,0.06183 v 1.340133 c 0.07127,0 0.15074,-0.02197 0.238446,-0.06592 0.08771,-0.04675 0.131563,-0.09491 0.131563,-0.144321 v -0.886546 c 0,-0.203418 -0.06988,-0.305131 -0.209668,-0.305131 z m -0.639219,2.244073 -0.01441,-2.029656 c -0.0012,-0.167686 -0.05618,-0.262527 -0.168557,-0.284525 v -0.09071 l 0.415226,-0.235035 c 0.05482,0.02197 0.10963,0.06183 0.164444,0.119579 0.05482,0.05775 0.08223,0.109989 0.08223,0.156685 0.301483,-0.184177 0.474152,-0.276271 0.518005,-0.276271 0.04385,0 0.112367,0.05634 0.205555,0.169065 0.09594,0.112674 0.14389,0.214415 0.14389,0.305129 v 1.158704 c 0,0.02197 -0.149372,0.09211 -0.448115,0.21029 0.126077,0.426096 0.274076,0.713368 0.444003,0.861813 0.07674,0.06323 0.154856,0.09479 0.234335,0.09479 v 0.123696 c -0.25489,0.162191 -0.416594,0.243286 -0.485113,0.243286 -0.09045,0 -0.205559,-0.170442 -0.345337,-0.511318 -0.137035,-0.340875 -0.211039,-0.566289 -0.222002,-0.676244 l -0.04523,0.01241 0.01266,0.640594 c 0.0049,0.245403 0.182247,0.433098 0.229874,0.433098 l -0.05962,0.114076 h -0.84279 l -0.06578,-0.119317 c 0.06029,0 0.117853,-0.03576 0.172669,-0.107186 0.04934,-0.06872 0.074,-0.17319 0.074,-0.313383 z m 1.761557,-0.0093 v -2.250897 c 0,-0.01928 0.156223,-0.08662 0.46867,-0.202062 0.312447,-0.118207 0.491967,-0.177305 0.538559,-0.177305 0.04659,0 0.116471,0.05635 0.209669,0.169065 0.09594,0.112675 0.143889,0.214415 0.143889,0.305132 v 1.080354 h 0.201447 v 0.099 l -0.201447,0.103099 v 0.799956 c 0,0.151192 0.06577,0.24054 0.197336,0.26802 v 0.09071 l -0.448114,0.264105 c -0.06029,-0.02479 -0.116471,-0.07726 -0.168557,-0.132147 -0.05209,-0.05775 -0.07811,-0.11139 -0.07811,-0.160812 v -1.129882 h -0.370002 l -0.0025,0.859778 c -6.17e-4,0.217023 0.16184,0.441503 0.214323,0.441503 l -0.06745,0.12152 h -0.818696 l -0.06577,-0.128206 c 0.0603,0 0.117854,-0.03576 0.172668,-0.107186 0.04934,-0.06872 0.05926,-0.173974 0.074,-0.313385 z m 0.653672,-2.246784 c -0.05482,0 -0.108263,0.02057 -0.160334,0.06183 v 1.216423 l 0.242556,-0.107187 h 0.127444 v -0.865927 c 0,-0.203428 -0.06988,-0.305143 -0.209668,-0.305143 z m 1.784233,2.379251 c 0.167187,0 0.261743,-0.04535 0.283669,-0.136073 h 0.09045 l 0.234335,0.338128 c -0.03289,0.05224 -0.07536,0.09888 -0.127445,0.14019 -0.05207,0.04127 -0.10279,0.07446 -0.15211,0.07446 h -1.077127 c -0.05482,-0.167697 -0.08223,-0.310895 -0.08223,-0.404357 l 0.986674,-2.338013 h -0.378224 c -0.167187,0 -0.261743,0.04535 -0.28367,0.136074 h -0.09045 l -0.234331,-0.33818 c 0.03289,-0.05224 0.07536,-0.09888 0.127445,-0.14019 0.05207,-0.04127 0.102791,-0.06183 0.152112,-0.06183 h 0.550892 c 0.167187,0 0.261743,-0.04535 0.28367,-0.136074 h 0.09045 c 0.03838,0.05224 0.08633,0.148421 0.14389,0.288638 0.0603,0.137446 0.09045,0.219921 0.09045,0.247413 l -0.933229,2.329761 z m 1.422459,-2.370998 c -0.0274,0 -0.05209,0.01372 -0.074,0.04127 v 1.088596 h 0.579672 v 0.099 l -0.205557,0.103099 h -0.374115 v 0.412352 c 0,0.305131 0.03015,0.483815 0.09045,0.536051 0.09045,0.07703 0.189114,0.120966 0.296003,0.131943 0.106895,0.01051 0.222001,0.01648 0.345336,0.01648 v 0.119579 c -0.01368,0 -0.115118,0.03846 -0.304224,0.115478 -0.189113,0.07423 -0.304226,0.12387 -0.345336,0.12387 -0.08496,0 -0.202817,-0.07843 -0.353558,-0.210406 -0.148001,-0.131958 -0.222002,-0.274894 -0.222002,-0.428833 v -2.168948 c 0,-0.01928 0.156223,-0.08662 0.468671,-0.20205 0.315186,-0.118207 0.496076,-0.177317 0.542669,-0.177317 0.01644,0 0.03564,0.03987 0.05756,0.119579 0.02192,0.07972 0.04659,0.175938 0.074,0.288639 0.03016,0.112674 0.06029,0.196555 0.09045,0.251538 0.03289,0.05224 0.09318,0.07831 0.18089,0.07831 v 0.0824 c -0.06029,0.02747 -0.163074,0.07703 -0.308336,0.148445 -0.142522,0.06872 -0.219261,0.103099 -0.230224,0.103099 -0.04111,0 -0.0932,-0.111391 -0.156223,-0.334002 -0.06303,-0.225415 -0.113735,-0.338128 -0.152113,-0.338128 z"
         id="path54"
         aria-label="RAZE"
         sodipodi:nodetypes="ccccsscccscccscscssccccscccscccccccsscscsccccsccccsccscccccssscccssscccsscccscccssscccccscccccccscscccscsscsscccccscccc"
         transform="matrix(1.2488291,0,0,1.2488291,12.431639,-1.9254972)" /><path
         style="font-size:3.52777px;line-height:0;font-family:'Pirata One';-inkscape-font-specification:'Pirata One';opacity:0.346354;mix-blend-mode:normal;fill:#ffffff;fill-opacity:1;stroke:#ffffff;stroke-width:0.0211865;stroke-dasharray:none;stroke-opacity:1;filter:url(#filter71)"
         d="m 64.159844,69.933702 c -0.04934,0 -0.102776,0.02057 -0.160333,0.06183 v 1.340134 c 0.07127,0 0.15074,-0.02197 0.238446,-0.06592 0.08771,-0.04675 0.131563,-0.09491 0.131563,-0.144322 v -0.886545 c 0,-0.203418 -0.06989,-0.305132 -0.209669,-0.305132 z m -0.64345,2.251285 -0.01019,-2.03687 c -8.41e-4,-0.167684 0.01368,-0.274483 -0.09871,-0.296481 l -0.06984,-0.07878 0.415225,-0.235034 c 0.05481,0.02197 0.109631,0.06183 0.164446,0.119579 0.05481,0.05775 0.08221,0.109989 0.08221,0.156686 0.301483,-0.184177 0.474152,-0.276271 0.518005,-0.276271 0.04385,0 0.112367,0.05634 0.205555,0.169063 0.09592,0.112675 0.14389,0.214416 0.14389,0.305131 v 1.158704 c 0,0.02197 -0.149372,0.09211 -0.448115,0.21029 0.126077,0.426096 0.274076,0.713366 0.444004,0.861813 0.07674,0.06323 0.154855,0.09479 0.234336,0.09479 v 0.123696 c -0.254892,0.162191 -0.429846,0.259591 -0.498365,0.259591 -0.09045,0 -0.238299,-0.17991 -0.378077,-0.520785 -0.137035,-0.340876 -0.165049,-0.573128 -0.176012,-0.683082 l -0.04523,0.01241 0.01873,0.656351 c 0.0028,0.09923 0.05826,0.417715 0.212841,0.42114 l -0.06302,0.113959 -0.872311,0.0035 -0.05494,-0.102398 c 0.0603,0 0.146758,-0.05271 0.201575,-0.124104 0.04934,-0.06872 0.074,-0.17319 0.074,-0.313395 z m 2.333127,-2.255412 c -0.0274,0 -0.05209,0.01372 -0.074,0.04127 v 1.088595 h 0.57967 v 0.099 l -0.205555,0.103099 h -0.374112 v 0.41234 c 0,0.305141 0.03015,0.483825 0.09045,0.536051 0.09045,0.07703 0.189113,0.12098 0.296002,0.131957 0.106881,0.01051 0.222003,0.01648 0.345337,0.01648 v 0.11958 c -0.01368,0 -0.115117,0.03845 -0.304225,0.115477 -0.189111,0.07423 -0.322291,0.128732 -0.363403,0.128732 -0.08496,0 -0.187158,-0.08579 -0.353558,-0.214182 -0.148001,-0.131957 -0.203935,-0.276096 -0.203935,-0.430035 v -2.16895 c 0,-0.01928 0.156223,-0.08662 0.468671,-0.20205 0.315187,-0.118207 0.496078,-0.177316 0.542671,-0.177316 0.01645,0 0.03564,0.03986 0.05756,0.119579 0.02192,0.07971 0.04659,0.175937 0.074,0.288638 0.03015,0.112675 0.06029,0.196557 0.09045,0.25154 0.03289,0.05224 0.09319,0.07831 0.18089,0.07831 v 0.0824 c -0.06029,0.02747 -0.163074,0.07703 -0.308334,0.148445 -0.142522,0.06872 -0.219262,0.103099 -0.230225,0.103099 -0.04111,0 -0.0932,-0.11139 -0.156224,-0.333989 -0.06303,-0.225416 -0.113735,-0.338128 -0.152111,-0.338128 z m 1.09356,2.354495 v -2.366873 c 0,-0.01928 0.156222,-0.08662 0.46867,-0.202048 0.312447,-0.118207 0.491968,-0.177305 0.538559,-0.177305 0.04659,0 0.116471,0.05635 0.209669,0.169063 0.09594,0.112675 0.143889,0.214417 0.143889,0.305132 v 1.080354 h 0.201447 v 0.099 l -0.201447,0.103099 v 0.799956 c 0,0.151192 0.06578,0.24053 0.197336,0.26802 v 0.09071 l -0.439684,0.260527 c -0.05187,-0.0284 -0.129729,-0.07609 -0.19144,-0.127388 -0.05209,-0.05775 -0.07875,-0.11139 -0.07811,-0.160812 l 0.01441,-1.131036 h -0.369965 v 0.775212 c 0,0.101698 0.01091,0.401666 0.03289,0.445652 0.02192,0.04395 0.124956,0.06592 0.193479,0.06592 l -0.05782,0.139679 -0.872896,0.0035 -0.06578,-0.144336 c 0.185113,-0.04384 0.276781,-0.143314 0.276781,-0.296143 z m 0.653671,-2.362746 c -0.05482,0 -0.108262,0.02057 -0.160333,0.06183 v 1.216421 l 0.242556,-0.107187 h 0.127444 v -0.865923 c 0,-0.203429 -0.06988,-0.305143 -0.209668,-0.305143 z m 1.11823,2.160696 v -1.789583 c 0,-0.101698 -0.01091,-0.174558 -0.03289,-0.218542 -0.02192,-0.04395 0.0099,-0.111857 -0.05858,-0.111857 l -0.07709,-0.08193 0.842785,-0.354608 0.06578,0.131958 c -0.06029,0 -0.117854,0.03576 -0.172669,0.107186 -0.04934,0.06872 -0.074,0.17319 -0.074,0.313383 v 1.686504 c 0,0.219921 0.01918,0.351862 0.05756,0.395846 0.06578,0.0824 0.130194,0.131958 0.193224,0.148445 0.145258,0.03296 0.305594,0.04944 0.481002,0.04944 v 0.115478 c -0.364519,0.153951 -0.572818,0.247178 -0.624893,0.247178 -0.04934,0 -0.117854,-0.03821 -0.205556,-0.08217 -0.08771,-0.04676 -0.175409,-0.120981 -0.263112,-0.222668 -0.08771,-0.101698 -0.131563,-0.213037 -0.131563,-0.334003 z m 1.512901,-1.880298 c 0,-0.09071 -0.01918,-0.169065 -0.05756,-0.235035 -0.03838,-0.06604 0.05676,-0.151964 -8.1e-4,-0.151964 l -0.143074,-0.03775 c 0.01918,-0.0035 0.168555,-0.08697 0.448114,-0.251527 0.01918,0.0058 0.04248,0.01372 0.06989,0.02479 0.0274,0.0082 0.06303,0.03436 0.106895,0.07831 0.04659,0.04407 0.06988,0.09491 0.06988,0.15256 0.01645,-0.0082 0.06305,-0.03436 0.139786,-0.07831 0.202818,-0.115492 0.327522,-0.173192 0.374114,-0.173192 0.04934,0 0.102777,0.02479 0.160334,0.07423 0.0603,0.04944 0.105527,0.108587 0.135667,0.177316 0.0055,-0.0035 0.06171,-0.03203 0.168556,-0.08662 0.21378,-0.109989 0.342596,-0.16495 0.386449,-0.16495 0.0877,0 0.169926,0.05775 0.246667,0.173192 0.07674,0.115477 0.115118,0.2213 0.115118,0.317508 v 2.074108 c 0,0.151192 0.06715,0.240529 0.201447,0.26802 v 0.09071 l -0.448115,0.26782 c -0.04584,-0.03086 -0.116471,-0.08088 -0.168556,-0.135884 -0.05209,-0.05775 -0.07811,-0.111391 -0.07811,-0.160812 v -2.020505 c 0,-0.164937 -0.0274,-0.279018 -0.08221,-0.342241 -0.05209,-0.06604 -0.148003,-0.101698 -0.287781,-0.107187 v 2.14009 c 0,0.151204 0.06715,0.240541 0.201445,0.26802 v 0.09071 l -0.440887,0.262981 c -0.04223,-0.03319 -0.127313,-0.07119 -0.179397,-0.126191 -0.05209,-0.05775 -0.0745,-0.116179 -0.0745,-0.165639 v -2.020505 c 0,-0.17319 -0.02604,-0.291409 -0.07811,-0.35462 -0.04934,-0.06324 -0.146632,-0.09479 -0.291892,-0.09479 l 0.0067,2.323765 c 6.9e-4,0.236309 0.02294,0.328858 0.216247,0.328858 l -0.04769,0.11396 -0.880259,0.0035 -0.05896,-0.09678 c 0,0 0.271418,-0.119929 0.271907,-0.324441 0.0016,-0.700918 -0.0014,-1.398413 -0.0013,-2.101342 z"
         id="path57"
         aria-label="REALM"
         sodipodi:nodetypes="ccccsscccscccscscssccccscccsccccccccccccccscscccscsscsscccccscccsscscsccccsccccsccssccccssccccssccscccccssccccscssccscccccccscccssssccccssccsccccssccscccccccs"
         transform="matrix(1.2488291,0,0,1.2488291,12.431639,-1.9254972)" /><path
         style="font-size:3.52777px;line-height:0;font-family:'Pirata One';-inkscape-font-specification:'Pirata One';opacity:0.346354;mix-blend-mode:normal;fill:#ffffff;fill-opacity:1;stroke:#ffffff;stroke-width:0.0211865;stroke-dasharray:none;stroke-opacity:1;filter:url(#filter71)"
         d="m 64.084615,69.904398 c -0.04934,0 -0.102777,0.02057 -0.160335,0.06183 v 1.340133 c 0.07127,0 0.15074,-0.02197 0.238447,-0.06592 0.0877,-0.04675 0.131563,-0.09491 0.131563,-0.144321 v -0.886546 c 0,-0.203418 -0.06988,-0.305131 -0.209668,-0.305131 z m -0.643451,2.251285 -0.01019,-2.036868 c -8.41e-4,-0.167686 -0.05618,-0.262527 -0.168556,-0.284525 v -0.09071 l 0.415225,-0.235035 c 0.05481,0.02197 0.109631,0.06183 0.164445,0.119579 0.05481,0.05775 0.08221,0.109989 0.08221,0.156685 0.301484,-0.184177 0.474153,-0.276271 0.518004,-0.276271 0.04385,0 0.112367,0.05634 0.205557,0.169063 0.09592,0.112675 0.14389,0.214417 0.14389,0.305131 v 1.158704 c 0,0.02197 -0.149372,0.09211 -0.448115,0.21029 0.126077,0.426096 0.274076,0.713368 0.444005,0.861813 0.07674,0.06323 0.154854,0.09479 0.234335,0.09479 v 0.123696 c -0.254892,0.162191 -0.416596,0.259593 -0.485115,0.259593 -0.09045,0 -0.205557,-0.186749 -0.345337,-0.527625 -0.137035,-0.340875 -0.211039,-0.566289 -0.222001,-0.676244 l -0.04523,0.01241 0.01873,0.65635 c 0.0028,0.09923 0.05826,0.417715 0.212843,0.421141 l -0.06302,0.11396 h -0.832563 l -0.06578,-0.115726 c 0.06029,0 0.117853,-0.03576 0.172669,-0.107186 0.04934,-0.06872 0.074,-0.173192 0.074,-0.313397 z m 2.333126,-2.255411 c -0.0274,0 -0.05209,0.01372 -0.074,0.04127 v 1.088594 h 0.57967 v 0.099 l -0.205557,0.103099 H 65.70029 v 0.41234 c 0,0.305143 0.03014,0.483826 0.09045,0.536051 0.09045,0.07703 0.189112,0.120981 0.296003,0.131958 0.106894,0.01051 0.222002,0.01648 0.345335,0.01648 v 0.119579 c -0.01368,0 -0.115118,0.03845 -0.304224,0.115478 -0.189112,0.07423 -0.304224,0.12752 -0.345336,0.12752 -0.08496,0 -0.202817,-0.08217 -0.353558,-0.214183 -0.148001,-0.131958 -0.222002,-0.274892 -0.222002,-0.428832 v -2.16895 c 0,-0.01928 0.156223,-0.0866 0.468671,-0.202049 0.315188,-0.118207 0.496078,-0.177315 0.542671,-0.177315 0.01644,0 0.03564,0.03985 0.05756,0.119579 0.02192,0.07971 0.04659,0.175937 0.074,0.288639 0.03015,0.112675 0.06029,0.196556 0.09045,0.251539 0.03289,0.05224 0.09319,0.07831 0.18089,0.07831 v 0.0824 c -0.06029,0.02747 -0.163075,0.07703 -0.308336,0.148445 -0.142521,0.06874 -0.219262,0.1031 -0.230225,0.1031 -0.04111,0 -0.09319,-0.111391 -0.156222,-0.333992 -0.06303,-0.225414 -0.113735,-0.338128 -0.152112,-0.338128 z m 1.093562,2.354495 v -2.366874 c 0,-0.01928 0.156222,-0.08662 0.468669,-0.202048 0.312448,-0.118207 0.491967,-0.177305 0.53856,-0.177305 0.04658,0 0.116471,0.05634 0.209668,0.169064 0.09594,0.112674 0.14389,0.214416 0.14389,0.305131 v 1.080356 h 0.201445 v 0.099 l -0.201445,0.103099 v 0.799958 c 0,0.151192 0.06577,0.240527 0.197334,0.268019 v 0.09071 l -0.45534,0.276224 c -0.06029,-0.02478 -0.109253,-0.0893 -0.161331,-0.144277 -0.05209,-0.05775 -0.07811,-0.11139 -0.07811,-0.160813 V 71.265179 H 67.36119 v 0.775212 c 0,0.101698 0.01092,0.401668 0.03289,0.445652 0.02192,0.04395 0.124956,0.06592 0.19348,0.06592 l -0.05782,0.139679 h -0.828332 l -0.06577,-0.144335 c 0.185113,-0.04384 0.232217,-0.139694 0.232217,-0.29252 z m 0.653671,-2.362747 c -0.05482,0 -0.108263,0.02057 -0.160335,0.06183 v 1.216421 l 0.242557,-0.107186 h 0.127445 v -0.865928 c 0,-0.203429 -0.06989,-0.305143 -0.209669,-0.305143 z m 1.118228,2.160698 v -1.789585 c 0,-0.101698 -0.01091,-0.174558 -0.03289,-0.218541 -0.02192,-0.04395 -0.06715,-0.06592 -0.135667,-0.06592 v -0.127841 l 0.842785,-0.35461 0.06577,0.131958 c -0.06029,0 -0.117853,0.03576 -0.172669,0.107186 -0.04934,0.06872 -0.074,0.17319 -0.074,0.313383 v 1.686502 c 0,0.219921 0.01918,0.351863 0.05756,0.395847 0.06578,0.0824 0.130195,0.131957 0.193224,0.148445 0.145258,0.03296 0.305595,0.04944 0.481003,0.04944 v 0.115477 c -0.36452,0.153951 -0.572819,0.24718 -0.624894,0.24718 -0.04932,0 -0.117853,-0.03822 -0.205555,-0.08217 -0.08771,-0.04675 -0.17541,-0.120981 -0.263113,-0.222668 -0.08771,-0.101698 -0.131563,-0.213037 -0.131563,-0.334002 z m 1.512901,-1.8803 c 0,-0.09071 -0.01918,-0.169065 -0.05756,-0.235035 -0.03838,-0.06604 -0.08633,-0.099 -0.14389,-0.099 v -0.09071 c 0.01918,-0.0035 0.168554,-0.08697 0.448115,-0.251527 0.01918,0.0058 0.04248,0.01372 0.06988,0.02479 0.0274,0.0082 0.06303,0.03436 0.106881,0.07831 0.04658,0.04407 0.06988,0.09491 0.06988,0.15256 0.01645,-0.0082 0.06305,-0.03436 0.139771,-0.07831 0.202817,-0.115478 0.327522,-0.17319 0.374113,-0.17319 0.04934,0 0.102777,0.02479 0.160335,0.07423 0.0603,0.04944 0.105527,0.108588 0.135667,0.177317 0.0055,-0.0035 0.06171,-0.03203 0.168557,-0.08662 0.213779,-0.109989 0.342595,-0.164949 0.386447,-0.164949 0.0877,0 0.169927,0.05775 0.246669,0.17319 0.07674,0.115478 0.115117,0.221301 0.115117,0.31751 v 2.074108 c 0,0.151192 0.06715,0.240528 0.201446,0.26802 v 0.09071 l -0.466181,0.277488 c -0.05308,-0.03681 -0.09841,-0.09059 -0.150488,-0.145548 -0.05209,-0.05775 -0.07811,-0.11139 -0.07811,-0.160811 v -2.020504 c 0,-0.164938 -0.0274,-0.279019 -0.08221,-0.342243 -0.05209,-0.06604 -0.148002,-0.101698 -0.287779,-0.107186 v 2.140091 c 0,0.151204 0.06715,0.24054 0.201445,0.26802 v 0.09071 l -0.45534,0.27626 c -0.06029,-0.02479 -0.109252,-0.08931 -0.16133,-0.144292 -0.05209,-0.05775 -0.07811,-0.11139 -0.07811,-0.160812 v -2.020519 c 0,-0.17319 -0.02604,-0.291409 -0.07811,-0.354621 -0.04934,-0.06324 -0.146631,-0.09479 -0.29189,-0.09479 l 0.0067,2.323767 c 6.91e-4,0.236307 0.02294,0.328859 0.216248,0.328859 l -0.04771,0.113959 h -0.846116 l -0.06577,-0.115594 c 0.153217,-0.0023 0.244165,-0.09771 0.244654,-0.302231 0.0016,-0.70092 -0.0014,-1.398414 -0.0013,-2.101344 z"
         id="path58"
         aria-label="REALM"
         sodipodi:nodetypes="ccccsscccscccscscssccccscccsccccccccccccccscscccscsscsscccccscccsscscsccccsccccsccssccccssccccssccscccccssccccscssccscccccccscccssssccccssccsccccssccsccccscc"
         transform="matrix(1.2488291,0,0,1.2488291,12.431639,-1.9254972)" /><path
         style="font-size:3.52777px;line-height:0;font-family:'Pirata One';-inkscape-font-specification:'Pirata One';fill:#240e00;fill-opacity:1;stroke:#240e00;stroke-width:0.0649999;stroke-dasharray:none;stroke-opacity:1"
         d="m 80.635017,85.452451 c -0.06162,0 -0.128351,0.02569 -0.20023,0.07721 v 1.673599 c 0.08898,0 0.188248,-0.02744 0.297778,-0.08232 0.109523,-0.0584 0.1643,-0.118527 0.1643,-0.180234 v -1.107143 c 0,-0.254034 -0.08727,-0.381058 -0.26184,-0.381058 z M 79.83674,88.254914 79.81875,85.72022 c -0.0015,-0.20941 -0.06263,-0.392719 -0.202976,-0.420191 l 0.0015,-0.07256 0.509521,-0.269389 c 0.06846,0.02744 0.136911,0.07722 0.205364,0.149334 0.06846,0.07212 0.102691,0.137358 0.102691,0.195673 0.376501,-0.230006 0.592135,-0.345015 0.646899,-0.345015 0.05476,0 0.140327,0.07036 0.256704,0.21113 0.119813,0.140712 0.179693,0.267769 0.179693,0.381057 v 1.447023 c 0,0.02744 -0.186538,0.11503 -0.559618,0.262616 0.157447,0.532122 0.342275,0.890875 0.554485,1.076258 0.09583,0.07896 0.193389,0.118376 0.292644,0.118376 v 0.154475 c -0.318314,0.202549 -0.520254,0.303823 -0.605823,0.303823 -0.112956,0 -0.256708,-0.212853 -0.431267,-0.638549 -0.171133,-0.425694 -0.263551,-0.707198 -0.277242,-0.844513 l -0.05649,0.0155 0.01581,0.799992 c 0.0061,0.306468 0.214058,0.543889 0.273535,0.543889 l -0.06092,0.139399 -1.103631,-0.0015 -0.07313,-0.129336 c 0.07529,0 0.189298,-0.06277 0.257751,-0.151978 0.06162,-0.08582 0.09241,-0.216285 0.09241,-0.391362 z m 2.199885,-0.01162 v -2.810986 c 0,-0.02408 0.195096,-0.108174 0.585288,-0.25234 0.390194,-0.14762 0.614385,-0.221424 0.672569,-0.221424 0.05818,0 0.14547,0.07037 0.261839,0.211134 0.119813,0.140711 0.179694,0.267767 0.179694,0.381055 v 1.349178 h 0.251573 v 0.123635 l -0.251573,0.128753 v 0.999009 c 0,0.188813 0.08214,0.300394 0.246438,0.334711 v 0.113282 l -0.559618,0.32982 c -0.0753,-0.03096 -0.145452,-0.09648 -0.210497,-0.16503 -0.06505,-0.07212 -0.09755,-0.139107 -0.09755,-0.200828 v -1.410967 h -0.462072 l -0.0031,1.073717 c -7.72e-4,0.271024 0.202109,0.551361 0.267653,0.551361 l -0.08425,0.151759 -1.075055,0.0029 -0.08213,-0.160107 c 0.0753,0 0.199821,-0.04772 0.268277,-0.136921 0.06162,-0.08582 0.074,-0.217261 0.09241,-0.391362 z m 0.816323,-2.805849 c -0.06846,0 -0.135202,0.02569 -0.200229,0.07721 v 1.519102 l 0.304415,-0.115754 0.157649,-0.01805 v -1.081395 c 0,-0.254049 -0.08728,-0.381072 -0.26184,-0.381072 z m 2.228205,2.971278 c 0.208788,0 0.326871,-0.05663 0.354253,-0.169933 h 0.112956 l 0.292647,0.422264 c -0.04107,0.06524 -0.09412,0.123484 -0.159157,0.175075 -0.06505,0.05153 -0.128368,0.09299 -0.189962,0.09299 l -1.40831,0.0044 C 84.01512,88.724093 84.04407,88.54074 84.04407,88.424022 l 1.232184,-2.919808 h -0.47234 c -0.208787,0 -0.32687,0.05663 -0.354253,0.169933 h -0.16259 l -0.243007,-0.422264 c -0.03845,-0.06686 0.09411,-0.123484 0.159156,-0.175073 0.06505,-0.05154 0.128368,-0.06014 0.189964,-0.06014 h 0.68797 c 0.208788,0 0.326871,-0.0632 0.354254,-0.176441 h 0.112957 c 0.04793,0.06524 0.107811,0.174801 0.179693,0.349907 0.0753,0.171647 0.112956,0.274644 0.112956,0.308977 l -1.165443,2.909474 z m 1.776406,-2.960974 c -0.03422,0 -0.06505,0.01713 -0.09241,0.05154 v 1.359475 h 0.723905 v 0.123634 l -0.256704,0.128754 h -0.467205 v 0.514956 c 0,0.381057 0.03764,0.604201 0.112957,0.669436 0.112957,0.0962 0.23617,0.151066 0.369656,0.164774 0.133493,0.01313 0.277241,0.02058 0.431265,0.02058 v 0.149334 c -0.01708,0 -0.143762,0.04802 -0.379923,0.144212 -0.23617,0.0927 -0.379924,0.154675 -0.431266,0.154675 -0.1061,0 -0.253284,-0.09795 -0.441533,-0.262762 -0.184828,-0.164792 -0.277242,-0.343293 -0.277242,-0.535537 v -2.708648 c 0,-0.02408 0.195095,-0.108173 0.585289,-0.252323 0.393615,-0.14762 0.619517,-0.221439 0.677701,-0.221439 0.02053,0 0.04451,0.04977 0.07188,0.149335 0.02738,0.09954 0.05818,0.219715 0.09241,0.36046 0.03766,0.14071 0.07529,0.245463 0.112956,0.314128 0.04107,0.06524 0.116379,0.0978 0.225902,0.0978 v 0.102903 c -0.0753,0.0343 -0.203651,0.0962 -0.385059,0.185384 -0.177985,0.08582 -0.273819,0.128753 -0.28751,0.128753 -0.05134,0 -0.116391,-0.139107 -0.195095,-0.417113 -0.07871,-0.28156 -0.142039,-0.42232 -0.189968,-0.42232 z"
         id="path12-0-6-0-0"
         aria-label="RAZE"
         sodipodi:nodetypes="ccccsscccscccscscssccccscccscccccccsscscsccccsccccsccscccccssscccssscccsscccscccssscccccscccccccscscccscsscsscccccscccc" /><path
         style="font-size:3.52777px;line-height:0;font-family:'Pirata One';-inkscape-font-specification:'Pirata One';fill:#ffe1b1;fill-opacity:1;stroke-width:0.512"
         d="m 80.541067,85.415855 c -0.06162,0 -0.128349,0.02569 -0.200231,0.07722 v 1.673597 c 0.089,0 0.188249,-0.02744 0.297779,-0.08232 0.109534,-0.05838 0.164299,-0.118527 0.164299,-0.180232 v -1.107145 c 0,-0.254034 -0.08727,-0.381056 -0.261838,-0.381056 z m -0.798276,2.802464 -0.018,-2.534693 c -0.0015,-0.209412 -0.07016,-0.327852 -0.210499,-0.355323 v -0.113282 l 0.518545,-0.293518 c 0.06846,0.02744 0.136929,0.07721 0.205364,0.149333 0.06846,0.07212 0.102691,0.137358 0.102691,0.195673 0.376501,-0.230005 0.592135,-0.345015 0.646899,-0.345015 0.05476,0 0.140327,0.07036 0.256704,0.211133 0.119813,0.140711 0.179693,0.267768 0.179693,0.381054 v 1.447023 c 0,0.02744 -0.186538,0.11503 -0.559618,0.262617 0.157447,0.532121 0.342275,0.890874 0.554486,1.076257 0.09583,0.07896 0.193388,0.118376 0.292643,0.118376 v 0.154476 c -0.318314,0.202548 -0.520254,0.303822 -0.605823,0.303822 -0.112956,0 -0.256707,-0.212853 -0.431267,-0.638549 -0.171133,-0.425694 -0.263551,-0.707198 -0.277242,-0.844513 l -0.05649,0.0155 0.01581,0.799993 c 0.0061,0.306466 0.227596,0.540865 0.287075,0.540865 l -0.07447,0.142461 H 79.5168 l -0.08215,-0.149006 c 0.07531,0 0.14718,-0.04466 0.215634,-0.133857 0.06162,-0.08582 0.09241,-0.216285 0.09241,-0.391362 z m 2.199885,-0.01161 v -2.810986 c 0,-0.02408 0.195094,-0.108173 0.585288,-0.252341 0.390193,-0.14762 0.614383,-0.221423 0.672568,-0.221423 0.05818,0 0.145472,0.07037 0.261841,0.211133 0.119813,0.140712 0.179693,0.267768 0.179693,0.381058 v 1.349177 h 0.251572 v 0.123634 l -0.251572,0.128753 v 0.999009 c 0,0.188813 0.08214,0.300393 0.246436,0.334711 v 0.113281 l -0.559617,0.329822 c -0.07529,-0.03096 -0.145453,-0.09648 -0.210497,-0.165029 -0.06505,-0.07212 -0.09755,-0.139107 -0.09755,-0.200827 v -1.411029 h -0.462069 l -0.0031,1.073716 c -7.71e-4,0.271024 0.20211,0.551362 0.267653,0.551362 l -0.08425,0.151757 h -1.02241 l -0.08214,-0.160107 c 0.07529,0 0.14718,-0.04466 0.215633,-0.133857 0.06162,-0.08582 0.074,-0.217264 0.09241,-0.391364 z m 0.816323,-2.805849 c -0.06846,0 -0.135202,0.02569 -0.200231,0.07722 v 1.519104 l 0.302913,-0.133858 h 0.159156 v -1.081395 c 0,-0.254047 -0.08727,-0.381071 -0.261838,-0.381071 z m 2.228203,2.971278 c 0.208788,0 0.326873,-0.05663 0.354254,-0.169932 h 0.112957 l 0.292644,0.422264 c -0.04107,0.06524 -0.09411,0.123484 -0.159157,0.175073 -0.06505,0.05154 -0.128368,0.09299 -0.18996,0.09299 h -1.345138 c -0.06846,-0.209425 -0.102691,-0.388255 -0.102691,-0.504973 l 1.232187,-2.919778 h -0.472336 c -0.2133,-0.04219 -0.375002,0.05969 -0.402384,0.172959 l -0.06483,-0.0029 -0.292645,-0.422264 c 0.04107,-0.06524 0.09411,-0.123484 0.159156,-0.175073 0.06505,-0.05154 0.128368,-0.07722 0.189962,-0.07722 h 0.687972 c 0.208788,0 0.326871,-0.05663 0.354253,-0.169933 h 0.112957 c 0.04793,0.06524 0.107811,0.185353 0.179694,0.360459 0.07529,0.171647 0.112956,0.274646 0.112956,0.308977 l -1.165444,2.909474 z m 1.776407,-2.960972 c -0.03422,0 -0.06505,0.01713 -0.09241,0.05154 v 1.35947 h 0.723911 v 0.123634 l -0.256705,0.128753 h -0.467206 v 0.514957 c 0,0.381057 0.03764,0.604202 0.112957,0.669436 0.112956,0.0962 0.236169,0.151066 0.369657,0.164775 0.133493,0.01313 0.277241,0.02058 0.431265,0.02058 v 0.149334 c -0.01708,0 -0.143762,0.04803 -0.379923,0.144212 -0.23617,0.0927 -0.379927,0.154693 -0.431266,0.154693 -0.106101,0 -0.253284,-0.09795 -0.441534,-0.262761 -0.184828,-0.164793 -0.277243,-0.343296 -0.277243,-0.53554 v -2.708645 c 0,-0.02408 0.195097,-0.108174 0.585291,-0.252326 0.393613,-0.14762 0.619514,-0.221438 0.677701,-0.221438 0.02054,0 0.04451,0.04979 0.07188,0.149333 0.02738,0.09956 0.05818,0.219717 0.09241,0.360461 0.03764,0.140711 0.0753,0.245464 0.112956,0.314128 0.04107,0.06524 0.116379,0.0978 0.225902,0.0978 v 0.102903 c -0.0753,0.03431 -0.203651,0.0962 -0.385059,0.185383 -0.177985,0.08582 -0.273821,0.128753 -0.28751,0.128753 -0.05134,0 -0.116391,-0.139109 -0.195097,-0.417112 -0.07871,-0.281504 -0.142036,-0.422264 -0.189962,-0.422264 z"
         id="path14-0-9-8-1"
         aria-label="RAZE"
         sodipodi:nodetypes="ccccsscccscccscscssccccscccscccccccsscscsccccsccccsccscccccssscccssscccsscccscccssscccccscccccccscscccscsscsscccccscccc" /><path
         style="font-size:3.52777px;line-height:0;font-family:'Pirata One';-inkscape-font-specification:'Pirata One';fill:url(#linearGradient34);fill-opacity:1;stroke-width:0.512"
         d="m 80.508278,85.415855 c -0.06162,0 -0.12835,0.02569 -0.200231,0.07722 v 1.673597 c 0.089,0 0.188248,-0.02744 0.297778,-0.08232 0.109535,-0.05838 0.1643,-0.118527 0.1643,-0.180232 v -1.107145 c 0,-0.254034 -0.08727,-0.381056 -0.26184,-0.381056 z m -0.798275,2.802464 -0.018,-2.534693 c -0.0015,-0.209412 -0.07016,-0.327852 -0.210499,-0.355323 v -0.113282 l 0.518547,-0.293518 c 0.06846,0.02744 0.136909,0.07721 0.205362,0.149333 0.06846,0.07212 0.102691,0.137358 0.102691,0.195673 0.376501,-0.230005 0.592135,-0.345015 0.6469,-0.345015 0.05476,0 0.140327,0.07036 0.256703,0.211133 0.119813,0.140711 0.179694,0.267768 0.179694,0.381054 v 1.447023 c 0,0.02744 -0.18654,0.11503 -0.559619,0.262617 0.157449,0.532121 0.342274,0.890874 0.554484,1.076257 0.09584,0.07896 0.193388,0.118376 0.292644,0.118376 v 0.154476 c -0.318314,0.202548 -0.520255,0.303822 -0.605823,0.303822 -0.112957,0 -0.256708,-0.212853 -0.431267,-0.638549 -0.171133,-0.425694 -0.263552,-0.707198 -0.277243,-0.844513 l -0.05648,0.0155 0.01581,0.799993 c 0.0061,0.306466 0.227595,0.540865 0.287073,0.540865 l -0.07446,0.142461 h -1.0525 l -0.08215,-0.149006 c 0.07529,0 0.147178,-0.04466 0.215634,-0.133857 0.06162,-0.08582 0.09241,-0.216285 0.09241,-0.391362 z m 2.199883,-0.01161 v -2.810986 c 0,-0.02408 0.195096,-0.108173 0.585289,-0.252341 0.390193,-0.14762 0.614383,-0.221423 0.672568,-0.221423 0.05818,0 0.145453,0.07037 0.261841,0.211133 0.119813,0.140712 0.179693,0.267768 0.179693,0.381058 v 1.349177 h 0.251573 v 0.123634 l -0.251573,0.128753 v 0.999009 c 0,0.188813 0.08213,0.300393 0.246439,0.334711 v 0.113281 l -0.559618,0.329822 c -0.07529,-0.03096 -0.145452,-0.09648 -0.210499,-0.165029 -0.06505,-0.07212 -0.09755,-0.139107 -0.09755,-0.200827 v -1.411033 h -0.462065 l -0.0031,1.073716 c -7.71e-4,0.271024 0.20211,0.551362 0.267652,0.551362 l -0.08423,0.151757 h -1.022411 l -0.08214,-0.160107 c 0.0753,0 0.14718,-0.04466 0.215633,-0.133857 0.06162,-0.08582 0.074,-0.217264 0.09241,-0.391364 z m 0.816325,-2.805849 c -0.06846,0 -0.135202,0.02569 -0.20023,0.07722 v 1.519104 l 0.302911,-0.133858 h 0.159156 v -1.081395 c 0,-0.254047 -0.08727,-0.381071 -0.26184,-0.381071 z m 2.228202,2.971278 c 0.208788,0 0.326872,-0.05663 0.354254,-0.169932 h 0.112957 l 0.292644,0.422264 c -0.04107,0.06524 -0.09411,0.123484 -0.159157,0.175073 -0.06503,0.05154 -0.128367,0.09299 -0.189959,0.09299 H 84.020004 C 83.951544,88.683108 83.917313,88.504278 83.917313,88.38756 L 85.1495,85.467782 h -0.472337 c -0.208788,0 -0.326872,0.05663 -0.354255,0.169933 h -0.112957 l -0.292639,-0.422329 c 0.04107,-0.06524 0.09411,-0.123485 0.159157,-0.175074 0.06503,-0.05154 0.128368,-0.07722 0.189962,-0.07722 h 0.68797 c 0.208788,0 0.326872,-0.05663 0.354255,-0.169933 h 0.112957 c 0.04793,0.06524 0.107811,0.185352 0.179694,0.36046 0.0753,0.171646 0.112956,0.274643 0.112956,0.308976 l -1.165443,2.909473 z m 1.776408,-2.960972 c -0.03422,0 -0.06505,0.01713 -0.09241,0.05154 v 1.35947 h 0.723911 v 0.123634 l -0.256705,0.128753 h -0.467206 v 0.514957 c 0,0.381057 0.03765,0.604202 0.112956,0.669436 0.112957,0.0962 0.236172,0.151066 0.369658,0.164775 0.133493,0.01313 0.277241,0.02058 0.431265,0.02058 v 0.149334 c -0.01708,0 -0.143762,0.04803 -0.379923,0.144212 -0.23617,0.0927 -0.379927,0.154693 -0.431266,0.154693 -0.106101,0 -0.253284,-0.09795 -0.441534,-0.262761 -0.184828,-0.164793 -0.277242,-0.343296 -0.277242,-0.53554 v -2.708645 c 0,-0.02408 0.195096,-0.108174 0.58529,-0.252326 0.393613,-0.14762 0.619514,-0.221438 0.677701,-0.221438 0.02053,0 0.04451,0.04979 0.07188,0.149333 0.02737,0.09956 0.05818,0.219717 0.09241,0.360461 0.03766,0.140711 0.07529,0.245464 0.112956,0.314128 0.04107,0.06524 0.116366,0.0978 0.225901,0.0978 v 0.102903 c -0.07529,0.03431 -0.203652,0.0962 -0.385059,0.185383 -0.177986,0.08582 -0.27382,0.128753 -0.287511,0.128753 -0.05134,0 -0.11639,-0.139109 -0.195095,-0.417112 -0.07871,-0.281504 -0.142036,-0.422264 -0.189964,-0.422264 z"
         id="text1-2-1-3-6-44-1-8"
         aria-label="RAZE"
         sodipodi:nodetypes="ccccsscccscccscscssccccscccscccccccsscscsccccsccccsccscccccssscccssscccsscccscccssscccccscccccccscscccscsscsscccccscccc" /><path
         d="m 88.454446,88.13239 v -1.393045 l 0.08118,-0.07899 h -0.16498 c -0.106496,0 -0.168511,0.01138 -0.182496,0.0707 l -0.02736,5.18e-4 -0.149261,-0.215511 c 0.02095,-0.03342 0.01957,-0.04704 0.05272,-0.0733 0.03318,-0.02627 0.06548,-0.03941 0.09691,-0.03941 h 0.691413 c 0.106496,0 0.166736,-0.02886 0.180699,-0.08675 h 0.05761 l 0.149281,0.215529 c -0.02095,0.0334 -0.048,0.06308 -0.08118,0.08935 -0.03318,0.02627 -0.06548,0.03942 -0.09691,0.03942 h -0.293339 v 1.335219 c 0,0.0647 0.0071,0.111236 0.02096,0.139308 0.01393,0.02805 0.04278,0.04199 0.08643,0.04199 v 0.08157 l -0.513773,0.22603 -0.04189,-0.08417 c 0.01534,0 0.07655,0.08221 0.01099,-0.0048 -0.02313,-0.03079 0.05499,-0.03568 0.07595,-0.06324 0.03144,-0.04362 0.04715,-0.110269 0.04715,-0.199757 z m 1.317349,-0.806929 v -0.462598 c 0,-0.0647 -0.0071,-0.111238 -0.02096,-0.139288 -0.01393,-0.02788 -0.04277,-0.04199 -0.08642,-0.04199 v -0.08157 l 0.536889,-0.226052 0.04189,0.08417 c -0.0384,0 -0.07507,0.0227 -0.109992,0.06842 -0.03142,0.04362 -0.04715,0.11027 -0.04715,0.199778 v 0.599268 h 0.130943 v 0.06308 l -0.130943,0.06568 v 0.557218 c 0,0.10687 0.03581,0.167356 0.107373,0.181369 v 0.05789 l -0.253847,0.148218 c -0.03839,-0.01621 -0.08486,-0.03941 -0.118049,-0.07442 -0.0741,-0.06713 -0.06467,-0.192368 -0.06401,-0.223961 l 0.01413,-0.646116 h -0.23571 v 0.541439 c 0,0.06471 0.0071,0.111238 0.02095,0.139308 0.01393,0.02805 0.04277,0.04199 0.08642,0.04199 v 0.08157 l -0.515552,0.222463 -0.04189,-0.08417 c 0.0384,0 0.05375,-0.01903 0.08866,-0.0647 0.03144,-0.04362 0.04714,-0.11027 0.04714,-0.199758 v -1.366766 c 0,-0.10687 -0.03581,-0.167355 -0.107373,-0.18137 v -0.05789 l 0.264516,-0.149677 c 0.0384,0.0162 0.0742,0.04216 0.107374,0.07899 0.03318,0.03503 0.04976,0.06826 0.04976,0.0999 v 0.841082 l 0.130943,-0.07102 z m 0.937598,-0.693906 c -0.01755,0 -0.03318,0.008 -0.04716,0.02627 v 0.693903 h 0.369277 v 0.06309 l -0.130943,0.06568 H 90.66225 v 0.262845 c 0,0.194494 0.01917,0.308399 0.05761,0.341676 0.05763,0.04897 0.120461,0.07704 0.18857,0.08417 0.06808,0.0066 0.141431,0.0097 0.219996,0.0097 v 0.06373 c -0.0088,0 -0.07334,0.03697 -0.193797,0.08595 -0.12046,0.04735 -0.193795,0.07102 -0.219995,0.07102 -0.05411,0 -0.129196,-0.04216 -0.225234,-0.126166 -0.09427,-0.08417 -0.141432,-0.175294 -0.141432,-0.273372 v -1.382534 c 0,-0.01138 0.09953,-0.05515 0.298565,-0.128926 0.200798,-0.07523 0.316025,-0.112861 0.345708,-0.112861 0.01054,0 0.02267,0.02546 0.03666,0.07622 0.01393,0.05075 0.02968,0.112043 0.04716,0.183983 0.01917,0.07183 0.0384,0.125193 0.05762,0.160207 0.02095,0.0334 0.05937,0.04995 0.115233,0.04995 v 0.05254 c -0.0384,0.01741 -0.103876,0.04897 -0.196419,0.09471 -0.09078,0.04362 -0.139677,0.06568 -0.146659,0.06568 -0.02619,0 -0.05938,-0.07102 -0.09954,-0.212903 -0.04017,-0.143683 -0.07246,-0.215544 -0.0969,-0.215544 z"
         id="text13-9-8-5-7"
         style="font-size:1.52199px;line-height:0;font-family:'Pirata One';-inkscape-font-specification:'Pirata One';fill:#241500;stroke:#240e00;stroke-width:0.0650875;stroke-dasharray:none"
         aria-label="THE"
         sodipodi:nodetypes="cccscccssscccsscscccccsccccsccccccsccccsccccsccsccccccssccccsccccccccccscccccscsscsscccccsccc" /><path
         style="font-size:1.52199px;line-height:0;font-family:'Pirata One';-inkscape-font-specification:'Pirata One';fill:#ffe1b1;stroke-width:0.511997"
         d="M 88.421991,88.071272 V 86.67821 l 0.08118,-0.07899 H 88.33817 c -0.106495,0 -0.166736,0.02885 -0.180719,0.08675 h -0.05761 l -0.149262,-0.215544 c 0.02095,-0.03341 0.048,-0.06308 0.08118,-0.08933 0.03317,-0.02627 0.06547,-0.03942 0.0969,-0.03942 h 0.691412 c 0.106495,0 0.166736,-0.02886 0.180721,-0.08675 h 0.05761 l 0.14928,0.21553 c -0.02095,0.03339 -0.04626,0.03454 -0.07942,0.06098 -0.03318,0.02627 -0.110927,-0.0032 -0.141372,0.0032 l -0.250644,0.06422 v 1.335222 c 0,0.06471 0.0071,0.111238 0.02096,0.139286 0.01393,0.02805 0.04277,0.04199 0.08642,0.04199 v 0.08157 l -0.570685,0.247452 -0.008,-0.10556 c -7.19e-4,0 0.07507,-0.02287 0.109993,-0.06842 0.03144,-0.04362 0.04715,-0.11027 0.04715,-0.199758 z m 1.317351,-0.806946 v -0.462598 c 0,-0.0647 -0.0071,-0.111238 -0.02097,-0.139307 -0.01392,-0.02805 -0.04277,-0.04202 -0.08642,-0.04202 v -0.08157 l 0.536893,-0.226069 0.04189,0.08417 c -0.0384,0 -0.07507,0.02286 -0.109993,0.06842 -0.03144,0.04378 -0.04716,0.110581 -0.04716,0.199759 v 0.599266 h 0.130944 v 0.06308 l -0.130944,0.06568 v 0.55722 c 0,0.10687 0.03581,0.167355 0.107373,0.181369 v 0.05789 l -0.278743,0.158911 c -0.0384,-0.0162 -0.07419,-0.04298 -0.107372,-0.07801 -0.03317,-0.03681 -0.03554,-0.07801 -0.03554,-0.109615 v -0.76749 h -0.235704 v 0.54144 c 0,0.0647 0.0071,0.111238 0.02097,0.139288 0.01393,0.02788 0.04277,0.04199 0.08642,0.04199 v 0.08157 l -0.568905,0.23675 -0.0099,-0.09485 c -0.01137,0.01459 0.07507,-0.02287 0.109993,-0.06842 0.03144,-0.04362 0.04715,-0.11027 0.04715,-0.199756 v -1.366771 c 0,-0.10687 -0.0358,-0.167335 -0.107372,-0.18137 v -0.05789 l 0.264517,-0.149677 c 0.0384,0.01621 0.07419,0.04216 0.107372,0.07899 0.03318,0.03503 0.04976,0.06826 0.04976,0.0999 v 0.841083 l 0.130943,-0.07102 z m 0.937597,-0.693889 c -0.01755,0 -0.03318,0.008 -0.04716,0.02627 v 0.693887 h 0.369279 v 0.06309 l -0.130943,0.06568 h -0.238327 v 0.262849 c 0,0.194491 0.01916,0.308397 0.05762,0.341688 0.05762,0.04897 0.12046,0.07705 0.188567,0.08417 0.06808,0.0066 0.141431,0.0097 0.219994,0.0097 v 0.07622 c -0.0088,0 -0.07334,0.02448 -0.193815,0.07361 -0.12046,0.04735 -0.22048,0.07102 -0.246672,0.07102 -0.05411,0 -0.102535,-0.04216 -0.198557,-0.126165 -0.09427,-0.08417 -0.141433,-0.175273 -0.141433,-0.273354 v -1.382539 c 0,-0.01138 0.09954,-0.05529 0.298566,-0.128759 0.200796,-0.07523 0.316025,-0.11286 0.345706,-0.11286 0.01054,0 0.02267,0.02546 0.03668,0.07622 0.01393,0.05075 0.02968,0.112056 0.04716,0.183983 0.01917,0.07183 0.0384,0.125194 0.05762,0.160206 0.02095,0.0334 0.05937,0.04995 0.115234,0.04995 v 0.05252 c -0.0384,0.01741 -0.103876,0.04912 -0.196419,0.09471 -0.09079,0.04362 -0.168149,0.07995 -0.17511,0.07995 -0.02619,0 -0.07892,-0.13718 -0.07107,-0.227188 -0.04018,-0.143682 -0.07246,-0.215513 -0.09691,-0.215513 z"
         id="text15-3-8-2-4"
         aria-label="THE"
         sodipodi:nodetypes="cccscccsssccccscsccccccsccsccccccsccccsccccsccsccccccssccccsccccccccccscccccscsscsscccccsccc" /><path
         style="font-size:3.52777px;line-height:0;font-family:'Pirata One';-inkscape-font-specification:'Pirata One';fill:#240e00;fill-opacity:1;stroke:#240e00;stroke-width:0.0649999;stroke-dasharray:none;stroke-opacity:1"
         d="m 92.569674,85.412254 c -0.06162,0 -0.128349,0.02569 -0.200228,0.07722 v 1.673598 c 0.089,0 0.188248,-0.02744 0.297778,-0.08232 0.109535,-0.05838 0.1643,-0.118526 0.1643,-0.180233 v -1.107143 c 0,-0.254035 -0.08728,-0.381058 -0.261841,-0.381058 z m -0.803559,2.81147 -0.01273,-2.543702 c -0.0011,-0.209409 0.01708,-0.342783 -0.123272,-0.370255 l -0.08722,-0.09838 0.518546,-0.293518 c 0.06845,0.02744 0.13691,0.07721 0.205364,0.149334 0.06845,0.07212 0.102667,0.137358 0.102667,0.195674 0.3765,-0.230005 0.592135,-0.345015 0.646899,-0.345015 0.05476,0 0.140328,0.07036 0.256703,0.211131 0.119788,0.140711 0.179695,0.267769 0.179695,0.381056 v 1.447023 c 0,0.02744 -0.186541,0.11503 -0.55962,0.262617 0.157449,0.532121 0.342275,0.890872 0.554486,1.076257 0.09584,0.07896 0.193387,0.118376 0.292645,0.118376 v 0.154476 c -0.318316,0.202548 -0.536804,0.324184 -0.622373,0.324184 -0.112956,0 -0.297594,-0.224677 -0.472153,-0.650371 -0.171133,-0.425696 -0.206118,-0.715739 -0.219809,-0.853053 l -0.05649,0.0155 0.02339,0.81967 c 0.0035,0.123922 0.07276,0.521655 0.265802,0.525932 l -0.0787,0.142316 -1.089367,0.0044 -0.06861,-0.127877 c 0.0753,0 0.183275,-0.06583 0.251733,-0.154985 0.06162,-0.08582 0.09241,-0.216285 0.09241,-0.391377 z M 94.679792,85.4071 c -0.03422,0 -0.06505,0.01713 -0.09241,0.05154 v 1.359469 h 0.723908 v 0.123634 l -0.256703,0.128753 h -0.467202 v 0.514942 c 0,0.381069 0.03765,0.604215 0.112957,0.669437 0.112957,0.0962 0.23617,0.151083 0.369656,0.164791 0.133476,0.01313 0.277244,0.02058 0.431267,0.02058 v 0.149335 c -0.01708,0 -0.143762,0.04802 -0.379925,0.144211 -0.236167,0.0927 -0.402487,0.160764 -0.453828,0.160764 -0.106101,0 -0.233729,-0.107137 -0.441534,-0.267476 -0.184828,-0.164792 -0.25468,-0.344797 -0.25468,-0.537041 v -2.708647 c 0,-0.02408 0.195096,-0.108174 0.58529,-0.252326 0.393615,-0.147621 0.619517,-0.221438 0.677703,-0.221438 0.02054,0 0.04451,0.04978 0.07188,0.149334 0.02737,0.09954 0.05818,0.219715 0.09241,0.360459 0.03765,0.140712 0.07529,0.245467 0.112957,0.314131 0.04107,0.06524 0.116378,0.0978 0.225901,0.0978 v 0.102903 c -0.07529,0.03431 -0.203652,0.0962 -0.385057,0.185383 -0.177985,0.08582 -0.273821,0.128753 -0.287511,0.128753 -0.05134,0 -0.116391,-0.139107 -0.195098,-0.417095 -0.07871,-0.281507 -0.142035,-0.422265 -0.18996,-0.422265 z m 1.36567,2.940362 v -2.95582 c 0,-0.02408 0.195094,-0.108174 0.585288,-0.252324 0.390193,-0.14762 0.614384,-0.221423 0.672569,-0.221423 0.05818,0 0.145452,0.07037 0.26184,0.211131 0.119813,0.140711 0.179693,0.26777 0.179693,0.381057 v 1.349178 h 0.251573 v 0.123634 l -0.251573,0.128753 v 0.999008 c 0,0.188813 0.08215,0.300381 0.246439,0.334711 v 0.113282 l -0.54909,0.325353 c -0.06478,-0.03547 -0.16201,-0.09502 -0.239076,-0.159085 -0.06505,-0.07212 -0.09834,-0.139107 -0.09755,-0.200827 l 0.018,-1.412471 h -0.462024 v 0.968108 c 0,0.127003 0.01363,0.501612 0.04107,0.556543 0.02738,0.05489 0.156049,0.08232 0.241623,0.08232 l -0.07221,0.174435 -1.090098,0.0044 -0.08215,-0.180251 c 0.231175,-0.05475 0.345653,-0.178975 0.345653,-0.369832 z m 0.816323,-2.950666 c -0.06846,0 -0.135201,0.02569 -0.200229,0.07721 v 1.519102 l 0.302911,-0.133858 h 0.159156 v -1.08139 c 0,-0.254048 -0.08727,-0.381072 -0.261839,-0.381072 z m 1.396478,2.69834 v -2.234883 c 0,-0.127004 -0.01363,-0.217994 -0.04107,-0.272922 -0.02737,-0.05489 0.01236,-0.13969 -0.07316,-0.13969 l -0.09627,-0.102317 1.052494,-0.442845 0.08215,0.164793 c -0.07529,0 -0.14718,0.04466 -0.215634,0.133857 -0.06162,0.08582 -0.09241,0.216285 -0.09241,0.391362 v 2.106155 c 0,0.274644 0.02395,0.439416 0.07188,0.494344 0.08215,0.102904 0.16259,0.164793 0.241304,0.185383 0.181402,0.04116 0.381635,0.06174 0.600689,0.06174 v 0.144212 c -0.455222,0.192259 -0.715352,0.308683 -0.780384,0.308683 -0.06162,0 -0.14718,-0.04772 -0.256705,-0.102616 -0.109535,-0.05839 -0.219056,-0.151085 -0.328582,-0.278074 -0.109534,-0.127004 -0.164299,-0.266047 -0.164299,-0.417113 z m 1.889357,-2.348171 c 0,-0.113281 -0.0239,-0.211133 -0.0719,-0.293519 -0.0479,-0.08247 0.0709,-0.189777 -0.001,-0.189777 l -0.178677,-0.04714 c 0.02395,-0.0044 0.210497,-0.108611 0.559617,-0.314114 0.0239,0.0072 0.053,0.01713 0.0873,0.03096 0.0342,0.01024 0.0787,0.04291 0.1335,0.0978 0.0582,0.05504 0.0873,0.118526 0.0873,0.190521 0.0205,-0.01024 0.0787,-0.04291 0.17456,-0.0978 0.25329,-0.14423 0.40902,-0.216288 0.46721,-0.216288 0.0616,0 0.12835,0.03096 0.20023,0.0927 0.0753,0.06174 0.13178,0.135607 0.16942,0.221437 0.007,-0.0044 0.0771,-0.04 0.2105,-0.108173 0.26698,-0.137358 0.42784,-0.205994 0.48261,-0.205994 0.10952,0 0.21221,0.07212 0.30804,0.216287 0.0958,0.144211 0.14377,0.276366 0.14377,0.396513 v 2.590206 c 0,0.188813 0.0839,0.30038 0.25157,0.334712 v 0.113281 l -0.55962,0.334461 c -0.0572,-0.03854 -0.14545,-0.101005 -0.2105,-0.169696 -0.065,-0.07212 -0.0975,-0.139108 -0.0975,-0.200826 V 85.99925 c 0,-0.205978 -0.0342,-0.348446 -0.10267,-0.4274 -0.065,-0.08247 -0.18483,-0.127004 -0.35939,-0.133859 v 2.672607 c 0,0.188828 0.0839,0.300395 0.25157,0.334711 v 0.113282 l -0.55059,0.328418 c -0.0527,-0.04145 -0.15899,-0.0889 -0.22404,-0.157591 -0.065,-0.07212 -0.093,-0.145088 -0.093,-0.206855 v -2.523265 c 0,-0.216285 -0.0325,-0.36392 -0.0975,-0.44286 -0.0616,-0.07898 -0.18312,-0.118377 -0.36452,-0.118377 l 0.008,2.901986 c 8.7e-4,0.295109 0.0286,0.410687 0.27006,0.410687 l -0.0596,0.142317 -1.099305,0.0044 -0.07363,-0.120862 c 0,0 0.338955,-0.149771 0.339565,-0.405171 0.002,-0.875327 -0.002,-1.746379 -0.002,-2.624217 z"
         id="path13-6-6-8-0"
         aria-label="REALM"
         sodipodi:nodetypes="ccccsscccscccscscssccccscccsccccccccccccccscscccscsscsscccccscccsscscsccccsccccsccssccccssccccssccscccccssccccscssccscccccccscccssssccccssccsccccssccscccccccs" /><path
         style="font-size:3.52777px;line-height:0;font-family:'Pirata One';-inkscape-font-specification:'Pirata One';fill:#ffe1b1;fill-opacity:1;stroke-width:0.512"
         d="m 92.475726,85.375658 c -0.06162,0 -0.128351,0.02569 -0.200231,0.07721 v 1.673597 c 0.089,0 0.188249,-0.02744 0.29778,-0.08232 0.109522,-0.05838 0.164299,-0.118527 0.164299,-0.180233 v -1.107144 c 0,-0.254035 -0.08727,-0.381057 -0.261839,-0.381057 z m -0.80356,2.81147 -0.01273,-2.5437 c -0.0011,-0.209411 -0.07016,-0.327851 -0.210497,-0.355323 v -0.113281 l 0.518545,-0.293519 c 0.06845,0.02744 0.13691,0.07721 0.205363,0.149334 0.06845,0.07212 0.102667,0.137358 0.102667,0.195673 0.376502,-0.230006 0.592136,-0.345015 0.646898,-0.345015 0.05476,0 0.140327,0.07036 0.256706,0.21113 0.119787,0.140712 0.179694,0.267771 0.179694,0.381057 v 1.447023 c 0,0.02744 -0.18654,0.11503 -0.559619,0.262616 0.157448,0.532122 0.342274,0.890875 0.554486,1.076258 0.09583,0.07896 0.193386,0.118376 0.292644,0.118376 v 0.154475 c -0.318316,0.202549 -0.520257,0.324188 -0.605825,0.324188 -0.112957,0 -0.256706,-0.233218 -0.431267,-0.658914 -0.171134,-0.425694 -0.263552,-0.707198 -0.277242,-0.844513 l -0.05648,0.0155 0.02339,0.819669 c 0.0035,0.123921 0.07276,0.521655 0.265805,0.525933 l -0.0787,0.142317 h -1.03973 l -0.08215,-0.144522 c 0.07529,0 0.147178,-0.04466 0.215634,-0.133857 0.06162,-0.08582 0.09241,-0.216288 0.09241,-0.39138 z m 2.913675,-2.816623 c -0.03422,0 -0.06505,0.01713 -0.09241,0.05154 v 1.359468 h 0.723909 v 0.123634 L 94.960634,87.0339 h -0.467203 v 0.514942 c 0,0.381071 0.03764,0.604216 0.112957,0.669436 0.112956,0.0962 0.236168,0.151084 0.369657,0.164793 0.133492,0.01313 0.277242,0.02058 0.431264,0.02058 v 0.149333 c -0.01708,0 -0.143763,0.04802 -0.379924,0.144213 -0.236168,0.0927 -0.379923,0.15925 -0.431265,0.15925 -0.106101,0 -0.253284,-0.102616 -0.441534,-0.267478 -0.184828,-0.164793 -0.277242,-0.343293 -0.277242,-0.535538 v -2.708647 c 0,-0.02408 0.195096,-0.108149 0.58529,-0.252325 0.393616,-0.14762 0.619516,-0.221436 0.677703,-0.221436 0.02053,0 0.04451,0.04977 0.07188,0.149334 0.02737,0.09954 0.05818,0.219715 0.09241,0.36046 0.03765,0.140712 0.07529,0.245465 0.112957,0.31413 0.04107,0.06524 0.116378,0.0978 0.2259,0.0978 v 0.102904 c -0.07529,0.03431 -0.203653,0.0962 -0.385059,0.185382 -0.177984,0.08584 -0.27382,0.128755 -0.287511,0.128755 -0.05134,0 -0.116379,-0.139109 -0.195095,-0.417099 -0.07871,-0.281504 -0.142036,-0.422264 -0.189962,-0.422264 z m 1.365672,2.940362 v -2.955821 c 0,-0.02408 0.195095,-0.108173 0.585288,-0.252323 0.390194,-0.147621 0.614383,-0.221424 0.672569,-0.221424 0.05817,0 0.145453,0.07036 0.26184,0.211132 0.119812,0.140711 0.179694,0.267769 0.179694,0.381057 v 1.34918 h 0.25157 v 0.123634 l -0.25157,0.128753 v 0.999011 c 0,0.188813 0.08214,0.300377 0.246436,0.33471 v 0.113281 l -0.568642,0.344956 c -0.07529,-0.03095 -0.136438,-0.11152 -0.201474,-0.180177 -0.06505,-0.07212 -0.09755,-0.139107 -0.09755,-0.200828 v -1.410967 h -0.46207 v 0.968107 c 0,0.127004 0.01364,0.501615 0.04107,0.556544 0.02737,0.05489 0.156049,0.08232 0.241624,0.08232 l -0.07221,0.174436 h -1.034445 l -0.08213,-0.18025 c 0.231174,-0.05475 0.289999,-0.174454 0.289999,-0.365308 z M 96.767837,85.3602 c -0.06846,0 -0.135202,0.02569 -0.200231,0.07722 v 1.519102 l 0.302912,-0.133857 h 0.159157 v -1.081401 c 0,-0.254048 -0.08728,-0.381071 -0.261841,-0.381071 z m 1.396475,2.698343 v -2.234886 c 0,-0.127004 -0.01362,-0.217993 -0.04107,-0.272921 -0.02737,-0.05489 -0.08386,-0.08232 -0.169424,-0.08232 v -0.159652 l 1.052494,-0.442847 0.08214,0.164793 c -0.07529,0 -0.147179,0.04466 -0.215635,0.133857 -0.06162,0.08582 -0.09241,0.216285 -0.09241,0.391362 v 2.106152 c 0,0.274644 0.02395,0.439417 0.07188,0.494346 0.08215,0.102903 0.162591,0.164791 0.241303,0.185382 0.181403,0.04116 0.381636,0.06174 0.600691,0.06174 v 0.144211 c -0.455223,0.192259 -0.715353,0.308686 -0.780386,0.308686 -0.06159,0 -0.147178,-0.04773 -0.256703,-0.102616 -0.109535,-0.05838 -0.219057,-0.151085 -0.328583,-0.278075 -0.109535,-0.127003 -0.1643,-0.266047 -0.1643,-0.417111 z m 1.889358,-2.348174 c 0,-0.113281 -0.0239,-0.211133 -0.07188,-0.293518 -0.04793,-0.08247 -0.107812,-0.123634 -0.179694,-0.123634 v -0.113282 c 0.02395,-0.0044 0.210494,-0.10861 0.559614,-0.314114 0.0239,0.0072 0.053,0.01713 0.0873,0.03096 0.0342,0.01024 0.0787,0.04291 0.13347,0.0978 0.0582,0.05504 0.0873,0.118527 0.0873,0.190522 0.0205,-0.01024 0.0787,-0.04291 0.17455,-0.0978 0.25328,-0.144212 0.40902,-0.216285 0.4672,-0.216285 0.0616,0 0.12835,0.03096 0.20023,0.0927 0.0753,0.06174 0.13179,0.135608 0.16943,0.221438 0.007,-0.0044 0.0771,-0.04 0.2105,-0.108173 0.26697,-0.137358 0.42784,-0.205993 0.4826,-0.205993 0.10952,0 0.21221,0.07212 0.30805,0.216285 0.0958,0.144212 0.14376,0.276367 0.14376,0.396515 v 2.590207 c 0,0.188813 0.0839,0.300378 0.25157,0.334711 v 0.113281 l -0.58218,0.346535 c -0.0663,-0.04597 -0.12289,-0.113131 -0.18793,-0.181764 -0.065,-0.07212 -0.0975,-0.139107 -0.0975,-0.200826 V 85.96267 c 0,-0.205979 -0.0342,-0.348447 -0.10266,-0.427403 -0.065,-0.08247 -0.18483,-0.127003 -0.35939,-0.133857 v 2.672608 c 0,0.188828 0.0839,0.300393 0.25157,0.334711 v 0.113281 l -0.56864,0.345002 c -0.0753,-0.03096 -0.13644,-0.111533 -0.20148,-0.180196 -0.065,-0.07212 -0.0975,-0.139107 -0.0975,-0.200827 v -2.523283 c 0,-0.216284 -0.0325,-0.36392 -0.0975,-0.442861 -0.0616,-0.07898 -0.18311,-0.118376 -0.36452,-0.118376 l 0.008,2.901988 c 8.6e-4,0.295107 0.0287,0.410688 0.27006,0.410688 l -0.0596,0.142316 h -1.056639 l -0.08214,-0.144358 c 0.191342,-0.0029 0.304919,-0.122023 0.305529,-0.377434 0.002,-0.87533 -0.002,-1.746381 -0.002,-2.62422 z"
         id="path15-3-1-5-1"
         aria-label="REALM"
         sodipodi:nodetypes="ccccsscccscccscscssccccscccsccccccccccccccscscccscsscsscccccscccsscscsccccsccccsccssccccssccccssccscccccssccccscssccscccccccscccssssccccssccsccccssccsccccscc" /><path
         style="font-size:3.52777px;line-height:0;font-family:'Pirata One';-inkscape-font-specification:'Pirata One';fill:url(#linearGradient35);stroke-width:0.512"
         d="m 92.442937,85.375658 c -0.06162,0 -0.12835,0.02569 -0.20023,0.07721 v 1.673597 c 0.08898,0 0.188249,-0.02744 0.297778,-0.08232 0.109523,-0.05838 0.1643,-0.118527 0.1643,-0.180233 v -1.107144 c 0,-0.254035 -0.08727,-0.381057 -0.261839,-0.381057 z m -0.80356,2.81147 -0.01273,-2.5437 c -0.001,-0.209411 -0.07016,-0.327851 -0.210498,-0.355323 v -0.113281 l 0.518545,-0.293519 c 0.06845,0.02744 0.136911,0.07721 0.205365,0.149334 0.06845,0.07212 0.102667,0.137358 0.102667,0.195673 0.376499,-0.230006 0.592133,-0.345015 0.646896,-0.345015 0.05476,0 0.140327,0.07036 0.256705,0.21113 0.119788,0.140712 0.179694,0.267771 0.179694,0.381057 v 1.447023 c 0,0.02744 -0.18654,0.11503 -0.559618,0.262616 0.157448,0.532122 0.342273,0.890875 0.554485,1.076258 0.09584,0.07896 0.193387,0.118376 0.292645,0.118376 v 0.154475 c -0.318317,0.202549 -0.520257,0.324188 -0.605826,0.324188 -0.112957,0 -0.256706,-0.233218 -0.431264,-0.658914 -0.171134,-0.425694 -0.263554,-0.707198 -0.277244,-0.844513 l -0.05649,0.0155 0.02339,0.819669 c 0.0035,0.123921 0.07276,0.521655 0.265801,0.525933 l -0.07871,0.142317 H 91.41346 L 91.33131,88.71189 c 0.0753,0 0.147178,-0.04466 0.215631,-0.133857 0.06162,-0.08582 0.09241,-0.216288 0.09241,-0.39138 z m 2.913678,-2.816623 c -0.03422,0 -0.06505,0.01713 -0.09241,0.05154 v 1.359468 h 0.723909 v 0.123634 L 94.927848,87.0339 h -0.467203 v 0.514942 c 0,0.381071 0.03764,0.604216 0.112957,0.669436 0.112956,0.0962 0.236168,0.151084 0.369656,0.164793 0.133475,0.01313 0.277242,0.02058 0.431267,0.02058 v 0.149333 c -0.01708,0 -0.143763,0.04802 -0.379925,0.144213 -0.23617,0.0927 -0.379925,0.15925 -0.431267,0.15925 -0.106101,0 -0.253283,-0.102616 -0.441533,-0.267478 -0.184827,-0.164793 -0.277243,-0.343293 -0.277243,-0.535538 v -2.708647 c 0,-0.02408 0.195097,-0.108149 0.58529,-0.252325 0.393616,-0.14762 0.619516,-0.221436 0.677703,-0.221436 0.02054,0 0.04451,0.04977 0.07188,0.149334 0.02737,0.09954 0.05818,0.219715 0.09241,0.36046 0.03766,0.140712 0.07529,0.245465 0.112957,0.31413 0.04107,0.06524 0.116378,0.0978 0.2259,0.0978 v 0.102904 c -0.0753,0.03431 -0.203653,0.0962 -0.385057,0.185382 -0.177985,0.08584 -0.273822,0.128755 -0.287512,0.128755 -0.05134,0 -0.116391,-0.139109 -0.195096,-0.417099 -0.07871,-0.281504 -0.142036,-0.422264 -0.189961,-0.422264 z m 1.365669,2.940362 v -2.955821 c 0,-0.02408 0.195095,-0.108173 0.585288,-0.252323 0.390194,-0.147621 0.614382,-0.221424 0.672569,-0.221424 0.05818,0 0.145452,0.07036 0.26184,0.211132 0.119812,0.140711 0.179694,0.267769 0.179694,0.381057 v 1.34918 h 0.251572 v 0.123634 l -0.251572,0.128753 v 0.999011 c 0,0.188813 0.08213,0.300377 0.246439,0.33471 v 0.113281 l -0.559621,0.334404 c -0.07529,-0.03096 -0.145452,-0.101006 -0.210496,-0.169624 -0.06505,-0.07212 -0.09755,-0.139107 -0.09755,-0.200828 v -1.410967 h -0.462069 v 0.968109 c 0,0.127002 0.01362,0.501613 0.04107,0.556542 0.02737,0.05489 0.156047,0.08232 0.241623,0.08232 l -0.07221,0.174435 h -1.034444 l -0.08214,-0.180251 c 0.231176,-0.05474 0.29,-0.174454 0.29,-0.365306 z M 96.735048,85.3602 c -0.06846,0 -0.135202,0.02569 -0.200229,0.07722 v 1.519102 l 0.302911,-0.133857 h 0.159156 v -1.081401 c 0,-0.254048 -0.08728,-0.381071 -0.26184,-0.381071 z m 1.396478,2.698343 v -2.234886 c 0,-0.127004 -0.01362,-0.217993 -0.04107,-0.272921 -0.02737,-0.05489 -0.08386,-0.08232 -0.169425,-0.08232 v -0.159652 l 1.052493,-0.442847 0.08214,0.164793 c -0.07529,0 -0.14718,0.04466 -0.215635,0.133857 -0.06162,0.08582 -0.09241,0.216285 -0.09241,0.391362 v 2.106152 c 0,0.274644 0.02395,0.439417 0.07188,0.494346 0.08215,0.102903 0.162591,0.164791 0.241303,0.185382 0.181403,0.04116 0.381635,0.06174 0.600692,0.06174 v 0.144211 c -0.455224,0.192259 -0.715354,0.308686 -0.780387,0.308686 -0.06162,0 -0.147179,-0.04773 -0.256704,-0.102616 -0.109535,-0.05838 -0.219056,-0.151085 -0.328582,-0.278075 -0.109535,-0.127003 -0.1643,-0.266047 -0.1643,-0.417111 z m 1.889354,-2.348174 c 0,-0.113281 -0.02395,-0.211133 -0.07188,-0.293518 -0.04793,-0.08247 -0.107811,-0.123634 -0.179692,-0.123634 v -0.113282 c 0.02395,-0.0044 0.210494,-0.10861 0.559612,-0.314114 0.0239,0.0072 0.053,0.01713 0.0873,0.03096 0.0342,0.01024 0.0787,0.04291 0.13349,0.0978 0.0582,0.05504 0.0873,0.118527 0.0873,0.190522 0.0205,-0.01024 0.0787,-0.04291 0.17457,-0.0978 0.25328,-0.144212 0.40902,-0.216285 0.4672,-0.216285 0.0616,0 0.12835,0.03096 0.20023,0.0927 0.0753,0.06174 0.13179,0.135608 0.16943,0.221438 0.007,-0.0044 0.0771,-0.04 0.2105,-0.108173 0.26697,-0.137358 0.42784,-0.205993 0.4826,-0.205993 0.10954,0 0.21221,0.07212 0.30805,0.216285 0.0958,0.144212 0.14376,0.276367 0.14376,0.396515 v 2.590207 c 0,0.188813 0.0839,0.300378 0.25157,0.334711 v 0.113281 l -0.55961,0.334463 c -0.0753,-0.03095 -0.14546,-0.101005 -0.2105,-0.169696 -0.065,-0.07212 -0.0976,-0.139107 -0.0976,-0.200826 v -2.523264 c 0,-0.205979 -0.0342,-0.348447 -0.10267,-0.427403 -0.065,-0.08247 -0.18483,-0.127003 -0.35938,-0.133857 v 2.672608 c 0,0.188828 0.0839,0.300394 0.25157,0.334711 v 0.113282 l -0.55962,0.334449 c -0.0753,-0.03096 -0.14547,-0.101006 -0.2105,-0.169641 -0.065,-0.07212 -0.0975,-0.139109 -0.0975,-0.200827 v -2.523282 c 0,-0.216284 -0.0325,-0.36392 -0.0975,-0.442861 -0.0616,-0.07898 -0.18312,-0.118376 -0.36452,-0.118376 l 0.008,2.901988 c 8.7e-4,0.295107 0.0286,0.410688 0.27006,0.410688 l -0.0596,0.142316 h -1.056743 l -0.08213,-0.144358 c 0.191339,-0.0029 0.304913,-0.122023 0.305523,-0.377434 0.002,-0.87533 -0.002,-1.746381 -0.002,-2.62422 z"
         id="text1-7-07-7-7-0-3-4-8"
         aria-label="REALM"
         sodipodi:nodetypes="ccccsscccscccscscssccccscccsccccccccccccccscscccscsscsscccccscccsscscsccccsccccsccssccccssccccssccscccccssccccscssccscccccccscccssssccccssccsccccssccsccccscc" /><path
         style="font-size:1.52199px;line-height:0;font-family:'Pirata One';-inkscape-font-specification:'Pirata One';fill:#de8100;fill-opacity:1;stroke-width:0.511997"
         d="m 88.385003,88.073039 v -1.393064 l 0.0812,-0.07897 h -0.165002 q -0.159753,0 -0.180719,0.08675 h -0.05761 l -0.14929,-0.215541 q 0.03142,-0.04994 0.08119,-0.08935 0.04976,-0.03942 0.0969,-0.03942 h 0.69142 q 0.159756,0 0.18072,-0.08675 h 0.05762 l 0.149281,0.215511 q -0.03142,0.04995 -0.08118,0.0895 -0.04976,0.03942 -0.09691,0.03942 h -0.293327 v 1.335221 q 0,0.09731 0.02097,0.139288 0.02095,0.04199 0.08641,0.04199 v 0.08157 l -0.53689,0.226031 -0.04189,-0.08417 q 0.05762,0 0.109993,-0.06842 0.04716,-0.06568 0.04716,-0.199776 z m 1.317349,-0.80693 v -0.462597 q 0,-0.0973 -0.02095,-0.139288 -0.02097,-0.04199 -0.08643,-0.04199 v -0.08157 l 0.536894,-0.226054 0.04189,0.08417 q -0.05761,0 -0.109994,0.06842 -0.04715,0.06583 -0.04715,0.199757 v 0.599269 h 0.130943 v 0.06308 l -0.130943,0.06568 v 0.55722 q 0,0.160207 0.107373,0.181369 v 0.05789 l -0.26452,0.149837 q -0.05761,-0.02366 -0.107372,-0.07621 -0.04976,-0.0553 -0.04976,-0.102644 v -0.7675 h -0.235698 v 0.541456 q 0,0.0973 0.02096,0.139288 0.02096,0.04199 0.08642,0.04199 v 0.08157 l -0.536892,0.226032 -0.04189,-0.08417 q 0.05761,0 0.109994,-0.06842 0.04715,-0.06568 0.04715,-0.199758 v -1.366777 q 0,-0.160206 -0.107374,-0.181368 v -0.05789 l 0.264518,-0.149676 q 0.05762,0.02366 0.107373,0.07898 0.04976,0.05253 0.04976,0.09974 v 0.841098 l 0.130943,-0.07102 z m 0.937598,-0.693888 q -0.02619,0 -0.04714,0.02627 v 0.693887 h 0.369275 v 0.06308 l -0.130942,0.06568 h -0.238331 v 0.262832 q 0,0.291761 0.05761,0.341705 0.08642,0.07361 0.188569,0.08417 0.102143,0.0097 0.219992,0.0097 v 0.07622 q -0.01317,0 -0.193814,0.0736 -0.1807,0.07102 -0.219994,0.07102 -0.08118,0 -0.225233,-0.126165 -0.141433,-0.126165 -0.141433,-0.273337 v -1.382541 q 0,-0.01842 0.298567,-0.128912 0.30118,-0.11286 0.345703,-0.11286 0.01573,0 0.03666,0.07622 0.02097,0.07622 0.04716,0.183982 0.02881,0.107837 0.05761,0.160206 0.03143,0.04995 0.115234,0.04995 v 0.05252 q -0.05761,0.02627 -0.196417,0.09471 -0.136184,0.06568 -0.146659,0.06568 -0.03928,0 -0.09954,-0.212901 -0.06024,-0.215529 -0.09691,-0.215529 z"
         id="text1-7-0-2-9-8-6-3-2-9"
         aria-label="THE" /><g
         id="g24-3-3"
         style="fill:#231601;fill-opacity:1;stroke-width:0.549393"
         transform="matrix(1.8162724,0.06626372,-0.06606556,1.8217202,-18.52043,-91.503325)"><path
           id="path23-6-6"
           style="opacity:1;fill:#231601;fill-opacity:1;stroke-width:0.0486956"
           d="m 62.64109,94.659536 0.264806,0.162423 0.137594,-0.234952 0.158096,0.235338 0.223389,-0.16864 -0.07515,0.291002 c -0.19482,-0.03545 -0.392259,-0.04345 -0.595153,0 z"
           sodipodi:nodetypes="cccccccc" /><path
           id="path24-8-4"
           style="opacity:1;fill:#231601;fill-opacity:1;stroke-width:0.0488958;stroke-dasharray:none"
           d="m 62.769231,94.996793 c 0.19682,-0.04505 0.372169,-0.04076 0.568988,0 l -0.01074,0.04831 c -0.201656,-0.0532 -0.351198,-0.04091 -0.544296,0 z"
           sodipodi:nodetypes="ccccc" /></g><g
         id="g26-6-8"
         style="fill:#fcdca7;fill-opacity:1;stroke-width:0.549393"
         transform="matrix(1.8174736,0,0,1.822925,-24.875078,-87.479187)"><path
           id="path25-4-0"
           style="opacity:1;fill:#fcdca7;fill-opacity:1;stroke-width:0.0486956"
           d="m 62.64109,94.659536 0.264806,0.162423 0.137594,-0.234952 0.158096,0.235338 0.223389,-0.16864 -0.07515,0.291002 c -0.19482,-0.03545 -0.392259,-0.04345 -0.595153,0 z"
           sodipodi:nodetypes="cccccccc" /><path
           id="path26-1-9"
           style="opacity:1;fill:#fcdca7;fill-opacity:1;stroke-width:0.0488958;stroke-dasharray:none"
           d="m 62.769231,94.996793 c 0.19682,-0.04505 0.372169,-0.04076 0.568988,0 l -0.01074,0.04831 c -0.201656,-0.0532 -0.351198,-0.04091 -0.544296,0 z"
           sodipodi:nodetypes="ccccc" /></g><g
         id="g29-4-3"
         style="stroke-width:0.549393"
         transform="matrix(1.8174736,0,0,1.822925,-24.909706,-87.501762)"><path
           id="rect19-9-2"
           style="opacity:1;fill:url(#linearGradient36);stroke-width:0.0486956"
           d="m 62.64109,94.659536 0.264806,0.162423 0.137594,-0.234952 0.158096,0.235338 0.223389,-0.16864 -0.07515,0.291002 c -0.19482,-0.03545 -0.392259,-0.04345 -0.595153,0 z"
           sodipodi:nodetypes="cccccccc" /></g><path
         id="rect20-4-6"
         style="fill:#e18d04;stroke-width:0.0890001;stroke-dasharray:none"
         d="m 89.171711,85.670262 c 0.357715,-0.08212 0.676407,-0.0743 1.034121,0 l -0.01952,0.08807 c -0.366505,-0.09698 -0.638293,-0.07458 -0.989244,0 z"
         sodipodi:nodetypes="ccccc" /><path
         style="font-size:3.52777px;line-height:0;font-family:'Pirata One';-inkscape-font-specification:'Pirata One';fill:#372302;fill-opacity:0.0854701;stroke-width:0.512"
         d="m 80.508278,85.415855 c -0.06162,0 -0.12835,0.02569 -0.200231,0.07722 v 1.673597 c 0.089,0 0.188248,-0.02744 0.297778,-0.08232 0.109535,-0.05838 0.1643,-0.118527 0.1643,-0.180232 v -1.107145 c 0,-0.254034 -0.08727,-0.381056 -0.26184,-0.381056 z m -0.798275,2.802464 -0.018,-2.534693 c -0.0015,-0.209412 -0.07016,-0.327852 -0.210499,-0.355323 v -0.113282 l 0.518547,-0.293518 c 0.06846,0.02744 0.136909,0.07721 0.205362,0.149333 0.06846,0.07212 0.102691,0.137358 0.102691,0.195673 0.376501,-0.230005 0.592135,-0.345015 0.6469,-0.345015 0.05476,0 0.140327,0.07036 0.256703,0.211133 0.119813,0.140711 0.179694,0.267768 0.179694,0.381054 v 1.447023 c 0,0.02744 -0.18654,0.11503 -0.559619,0.262617 0.157449,0.532121 0.342274,0.890874 0.554484,1.076257 0.09584,0.07896 0.193388,0.118376 0.292644,0.118376 v 0.154476 c -0.318314,0.202548 -0.520255,0.303822 -0.605823,0.303822 -0.112957,0 -0.256708,-0.212853 -0.431267,-0.638549 -0.171133,-0.425694 -0.263552,-0.707198 -0.277243,-0.844513 l -0.05648,0.0155 0.01581,0.799993 c 0.0061,0.306466 0.227595,0.540865 0.287073,0.540865 l -0.07446,0.142461 h -1.0525 l -0.08215,-0.149006 c 0.07529,0 0.147178,-0.04466 0.215634,-0.133857 0.06162,-0.08582 0.09241,-0.216285 0.09241,-0.391362 z m 2.199883,-0.01161 v -2.810986 c 0,-0.02408 0.195096,-0.108173 0.585289,-0.252341 0.390193,-0.14762 0.614383,-0.221423 0.672568,-0.221423 0.05818,0 0.145453,0.07037 0.261841,0.211133 0.119813,0.140712 0.179693,0.267768 0.179693,0.381058 v 1.349177 h 0.251573 v 0.123634 l -0.251573,0.128753 v 0.999009 c 0,0.188813 0.08213,0.300393 0.246439,0.334711 v 0.113281 l -0.559618,0.329822 c -0.07529,-0.03096 -0.145452,-0.09648 -0.210499,-0.165029 -0.06505,-0.07212 -0.09755,-0.139107 -0.09755,-0.200827 v -1.411033 h -0.462065 l -0.0031,1.073716 c -7.71e-4,0.271024 0.20211,0.551362 0.267652,0.551362 l -0.08423,0.151757 h -1.022411 l -0.08214,-0.160107 c 0.0753,0 0.14718,-0.04466 0.215633,-0.133857 0.06162,-0.08582 0.074,-0.217264 0.09241,-0.391364 z m 0.816325,-2.805849 c -0.06846,0 -0.135202,0.02569 -0.20023,0.07722 v 1.519104 l 0.302911,-0.133858 h 0.159156 v -1.081395 c 0,-0.254047 -0.08727,-0.381071 -0.26184,-0.381071 z m 2.228202,2.971278 c 0.208788,0 0.326872,-0.05663 0.354254,-0.169932 h 0.112957 l 0.292644,0.422264 c -0.04107,0.06524 -0.09411,0.123484 -0.159157,0.175073 -0.06503,0.05154 -0.128367,0.09299 -0.189959,0.09299 H 84.020004 C 83.951544,88.683108 83.917313,88.504278 83.917313,88.38756 L 85.1495,85.467782 h -0.472337 c -0.208788,0 -0.326872,0.05663 -0.354255,0.169933 h -0.112957 l -0.292639,-0.422329 c 0.04107,-0.06524 0.09411,-0.123485 0.159157,-0.175074 0.06503,-0.05154 0.128368,-0.07722 0.189962,-0.07722 h 0.68797 c 0.208788,0 0.326872,-0.05663 0.354255,-0.169933 h 0.112957 c 0.04793,0.06524 0.107811,0.185352 0.179694,0.36046 0.0753,0.171646 0.112956,0.274643 0.112956,0.308976 l -1.165443,2.909473 z m 1.776408,-2.960972 c -0.03422,0 -0.06505,0.01713 -0.09241,0.05154 v 1.35947 h 0.723911 v 0.123634 l -0.256705,0.128753 h -0.467206 v 0.514957 c 0,0.381057 0.03765,0.604202 0.112956,0.669436 0.112957,0.0962 0.236172,0.151066 0.369658,0.164775 0.133493,0.01313 0.277241,0.02058 0.431265,0.02058 v 0.149334 c -0.01708,0 -0.143762,0.04803 -0.379923,0.144212 -0.23617,0.0927 -0.379927,0.154693 -0.431266,0.154693 -0.106101,0 -0.253284,-0.09795 -0.441534,-0.262761 -0.184828,-0.164793 -0.277242,-0.343296 -0.277242,-0.53554 v -2.708645 c 0,-0.02408 0.195096,-0.108174 0.58529,-0.252326 0.393613,-0.14762 0.619514,-0.221438 0.677701,-0.221438 0.02053,0 0.04451,0.04979 0.07188,0.149333 0.02737,0.09956 0.05818,0.219717 0.09241,0.360461 0.03766,0.140711 0.07529,0.245464 0.112956,0.314128 0.04107,0.06524 0.116366,0.0978 0.225901,0.0978 v 0.102903 c -0.07529,0.03431 -0.203652,0.0962 -0.385059,0.185383 -0.177986,0.08582 -0.27382,0.128753 -0.287511,0.128753 -0.05134,0 -0.11639,-0.139109 -0.195095,-0.417112 -0.07871,-0.281504 -0.142036,-0.422264 -0.189964,-0.422264 z"
         id="path33-8"
         aria-label="RAZE"
         sodipodi:nodetypes="ccccsscccscccscscssccccscccscccccccsscscsccccsccccsccscccccssscccssscccsscccscccssscccccscccccccscscccscsscsscccccscccc" /></g></g></svg>
